<svg width="664" height="442" viewBox="0 0 664 442" fill="none" xmlns="http://www.w3.org/2000/svg">
<g opacity="0.5">
<path opacity="0.1" d="M251.362 186.576C251.362 191.492 250.415 196.36 248.574 200.901C246.734 205.442 244.036 209.569 240.636 213.045C239.461 214.245 238.21 215.36 236.892 216.383H251.023V269.064H236.442V216.727C234.069 218.511 231.488 220.001 228.754 221.159C224.31 223.04 219.548 224.008 214.739 224.008V209.036C217.624 209.036 220.482 208.454 223.148 207.326C225.814 206.197 228.236 204.543 230.277 202.457C232.317 200.372 233.936 197.896 235.04 195.171C236.144 192.446 236.713 189.526 236.713 186.576H251.362ZM382.325 212.085C387.838 212.085 393.227 213.756 397.812 216.886C402.395 220.017 405.969 224.466 408.078 229.672C410.188 234.878 410.74 240.606 409.665 246.133C408.589 251.659 405.934 256.736 402.035 260.72C398.137 264.704 393.171 267.418 387.763 268.517C382.356 269.617 376.751 269.053 371.658 266.896C366.564 264.74 362.211 261.088 359.148 256.403C356.085 251.718 354.45 246.21 354.45 240.575H368.82C368.82 243.305 369.612 245.974 371.096 248.243C372.58 250.513 374.689 252.283 377.157 253.327C379.624 254.372 382.34 254.645 384.96 254.113C387.579 253.58 389.986 252.265 391.874 250.335C393.763 248.405 395.05 245.945 395.57 243.268C396.091 240.59 395.824 237.815 394.802 235.293C393.78 232.77 392.049 230.615 389.828 229.098C387.607 227.582 384.996 226.772 382.325 226.772V212.085ZM286.519 186.582C291.697 186.481 296.807 187.797 301.32 190.394C308.769 194.706 313.085 201.219 315.326 209.506C310.815 213.992 305.849 219.012 301.513 223.651L316.027 223.679C315.961 229.615 316.162 235.679 315.951 241.608C315.803 245.759 314.048 250.85 311.978 254.398C308.04 261.217 301.59 266.136 294.074 268.052C286.595 269.961 278.68 268.733 272.093 264.641C265.226 260.369 260.791 253.896 258.895 245.956L260.628 244.238L297.739 206.379C295.088 203.512 291.491 201.709 287.615 201.564C283.775 201.411 280.037 202.845 277.244 205.542C272.401 210.226 272.823 215.075 272.83 221.2C272.859 224.696 272.84 228.192 272.774 231.688L258.174 231.675L258.151 220.888C258.149 218.501 258.095 215.406 258.322 213.062C258.964 206.835 261.528 200.979 265.641 196.34C271.237 190.047 278.289 186.961 286.519 186.582ZM301.234 224.014C299.495 225.674 297.774 227.448 296.105 229.184C289.635 235.912 282.955 242.476 276.515 249.229C277.413 250.129 278.27 250.972 279.327 251.682C282.966 253.852 286.63 254.664 290.787 253.54C294.444 252.559 297.569 250.129 299.468 246.786C300.293 245.335 300.859 243.744 301.138 242.09C301.516 239.837 301.394 236.352 301.381 233.964C301.361 230.713 301.379 227.461 301.434 224.21C301.283 224.016 301.367 224.055 301.234 224.014ZM376.887 187.124C382.294 186.025 387.899 186.589 392.992 188.746C398.086 190.902 402.439 194.554 405.502 199.239C408.565 203.924 410.2 209.432 410.2 215.067H395.83C395.83 212.337 395.038 209.668 393.554 207.398C392.07 205.129 389.961 203.359 387.493 202.315C385.025 201.27 382.31 200.997 379.69 201.529C377.071 202.062 374.664 203.376 372.776 205.307C370.887 207.237 369.601 209.697 369.08 212.374C368.559 215.052 368.826 217.827 369.848 220.349C370.87 222.871 372.601 225.027 374.822 226.544C377.043 228.06 379.654 228.87 382.325 228.87V243.557C376.812 243.557 371.423 241.886 366.839 238.756C362.255 235.625 358.682 231.175 356.572 225.97C354.462 220.764 353.91 215.035 354.986 209.509C356.061 203.982 358.716 198.906 362.614 194.921C366.513 190.937 371.48 188.224 376.887 187.124ZM348.347 235.446H322.235V220.543H348.347V235.446Z" fill="#0D0D0D"/>
<path opacity="0.1" d="M251.63 281.512C251.63 286.427 250.683 291.295 248.842 295.836C247.002 300.378 244.304 304.504 240.904 307.98C239.729 309.181 238.477 310.295 237.16 311.318H251.291V364H236.71V311.662C234.336 313.446 231.756 314.936 229.022 316.094C224.578 317.975 219.816 318.943 215.007 318.943V303.971C217.892 303.971 220.75 303.39 223.416 302.261C226.082 301.132 228.504 299.478 230.545 297.393C232.585 295.307 234.204 292.831 235.308 290.106C236.412 287.382 236.981 284.461 236.981 281.512H251.63ZM382.593 307.02C388.106 307.02 393.495 308.691 398.08 311.822C402.663 314.952 406.236 319.402 408.346 324.608C410.456 329.813 411.008 335.542 409.932 341.068C408.857 346.594 406.202 351.671 402.303 355.655C398.405 359.64 393.439 362.353 388.031 363.452C382.624 364.552 377.019 363.988 371.926 361.832C366.832 359.675 362.479 356.024 359.416 351.338C356.353 346.653 354.718 341.145 354.718 335.51H369.088C369.088 338.24 369.88 340.909 371.364 343.178C372.848 345.448 374.957 347.218 377.425 348.262C379.892 349.307 382.608 349.581 385.228 349.048C387.847 348.515 390.254 347.201 392.142 345.27C394.031 343.34 395.317 340.881 395.838 338.203C396.359 335.525 396.092 332.75 395.07 330.228C394.048 327.706 392.317 325.55 390.096 324.033C387.875 322.517 385.264 321.707 382.593 321.707V307.02ZM286.787 281.517C291.965 281.417 297.075 282.733 301.588 285.33C309.037 289.642 313.352 296.155 315.594 304.441C311.083 308.927 306.116 313.947 301.78 318.586L316.295 318.614C316.229 324.55 316.43 330.615 316.219 336.543C316.071 340.694 314.316 345.785 312.246 349.334C308.308 356.152 301.858 361.072 294.342 362.987C286.863 364.896 278.948 363.668 272.361 359.576C265.494 355.304 261.058 348.831 259.163 340.892L260.895 339.173L298.006 301.314C295.356 298.447 291.759 296.644 287.883 296.5C284.043 296.347 280.305 297.78 277.512 300.477C272.669 305.162 273.091 310.01 273.098 316.135C273.127 319.631 273.108 323.127 273.042 326.623L258.442 326.61L258.419 315.824C258.417 313.436 258.363 310.341 258.59 307.997C259.232 301.771 261.796 295.914 265.909 291.275C271.505 284.983 278.557 281.896 286.787 281.517ZM301.502 318.95C299.763 320.609 298.042 322.384 296.373 324.119C289.903 330.847 283.223 337.411 276.783 344.164C277.681 345.064 278.538 345.907 279.595 346.617C283.234 348.787 286.898 349.599 291.055 348.475C294.712 347.495 297.837 345.064 299.736 341.721C300.561 340.27 301.127 338.68 301.406 337.025C301.784 334.772 301.661 331.288 301.649 328.9C301.629 325.648 301.647 322.396 301.702 319.145C301.551 318.951 301.635 318.99 301.502 318.95ZM377.155 282.06C382.562 280.96 388.167 281.525 393.26 283.681C398.354 285.837 402.707 289.489 405.77 294.174C408.833 298.859 410.468 304.367 410.468 310.002H396.098C396.098 307.272 395.306 304.604 393.822 302.334C392.338 300.064 390.229 298.295 387.761 297.25C385.293 296.205 382.578 295.932 379.958 296.465C377.339 296.997 374.932 298.312 373.044 300.242C371.155 302.172 369.869 304.632 369.348 307.309C368.827 309.987 369.094 312.762 370.116 315.284C371.138 317.806 372.869 319.962 375.09 321.479C377.311 322.996 379.922 323.805 382.593 323.805V338.492C377.08 338.492 371.691 336.821 367.107 333.691C362.523 330.56 358.95 326.111 356.84 320.905C354.73 315.699 354.178 309.971 355.254 304.444C356.329 298.918 358.984 293.841 362.882 289.857C366.781 285.872 371.748 283.159 377.155 282.06ZM348.615 330.381H322.503V315.478H348.615V330.381Z" fill="#0D0D0D"/>
<path opacity="0.1" d="M251.362 0C251.362 4.91556 250.415 9.78326 248.574 14.3246C246.734 18.866 244.036 22.9925 240.636 26.4683C239.461 27.6691 238.21 28.7837 236.892 29.8065H251.023V82.4879H236.442V30.1503C234.069 31.9347 231.488 33.4247 228.754 34.5823C224.31 36.4634 219.548 37.4316 214.739 37.4316V22.4591C217.624 22.4591 220.482 21.878 223.148 20.7493C225.814 19.6206 228.236 17.9666 230.277 15.8811C232.317 13.7956 233.936 11.3195 235.04 8.59465C236.144 5.86984 236.713 2.9493 236.713 0H251.362ZM382.325 25.5086C387.838 25.5086 393.227 27.1795 397.812 30.3099C402.395 33.4405 405.969 37.8901 408.078 43.0959C410.188 48.3017 410.74 54.0299 409.665 59.5563C408.589 65.0827 405.934 70.1596 402.035 74.1438C398.137 78.128 393.171 80.8414 387.763 81.9406C382.356 83.0401 376.751 82.4762 371.658 80.3198C366.564 78.1634 362.211 74.5119 359.148 69.8265C356.085 65.1415 354.45 59.6332 354.45 53.9985H368.82C368.82 56.7284 369.612 59.3972 371.096 61.6668C372.58 63.9368 374.689 65.7061 377.157 66.7505C379.624 67.7953 382.34 68.0688 384.96 67.5363C387.579 67.0035 389.986 65.6888 391.874 63.7588C393.763 61.8283 395.05 59.369 395.57 56.6914C396.091 54.0138 395.824 51.2383 394.802 48.7161C393.78 46.194 392.049 44.0384 389.828 42.5215C387.607 41.0051 384.996 40.1955 382.325 40.1955V25.5086ZM286.519 0.00550662C291.697 -0.095213 296.807 1.22108 301.32 3.81805C308.769 8.12994 313.085 14.6431 315.326 22.9295C310.815 27.4152 305.849 32.4358 301.513 37.0744L316.027 37.1027C315.961 43.0383 316.162 49.1028 315.951 55.0312C315.803 59.1821 314.048 64.2735 311.978 67.8219C308.04 74.6408 301.59 79.5598 294.074 81.4754C286.595 83.3845 278.68 82.1564 272.093 78.0643C265.226 73.7921 260.791 67.3192 258.895 59.3799L260.628 57.6616L297.739 19.8021C295.088 16.9357 291.491 15.1327 287.615 14.9878C283.775 14.8348 280.037 16.2683 277.244 18.9652C272.401 23.6501 272.823 28.4983 272.83 34.6236C272.859 38.1195 272.84 41.6157 272.774 45.1114L258.174 45.0985L258.151 34.3121C258.149 31.9248 258.095 28.8293 258.322 26.4856C258.964 20.259 261.528 14.4023 265.641 9.7632C271.237 3.47096 278.289 0.38425 286.519 0.00550662ZM301.234 37.4379C299.495 39.0976 297.774 40.8718 296.105 42.6077C289.635 49.3356 282.955 55.8995 276.515 62.6528C277.413 63.5525 278.27 64.3951 279.327 65.1052C282.966 67.2753 286.63 68.0877 290.787 66.9636C294.444 65.9828 297.569 63.5521 299.468 60.2096C300.293 58.7584 300.859 57.1678 301.138 55.5137C301.516 53.2606 301.394 49.7758 301.381 47.3878C301.361 44.1362 301.379 40.8847 301.434 37.6333C301.283 37.4394 301.367 37.4786 301.234 37.4379ZM376.887 0.547907C382.294 -0.551375 387.899 0.0128829 392.992 2.16921C398.086 4.32554 402.439 7.97737 405.502 12.6625C408.565 17.3476 410.2 22.8557 410.2 28.4904H395.83C395.83 25.7605 395.038 23.0919 393.554 20.8221C392.07 18.5522 389.961 16.783 387.493 15.7383C385.025 14.6936 382.31 14.4202 379.69 14.9528C377.071 15.4854 374.664 16.8 372.776 18.7303C370.887 20.6607 369.601 23.1202 369.08 25.7977C368.559 28.4751 368.826 31.2503 369.848 33.7724C370.87 36.2946 372.601 38.4507 374.822 39.9673C377.043 41.484 379.654 42.2936 382.325 42.2936V56.9806C376.812 56.9806 371.423 55.3095 366.839 52.1791C362.255 49.0484 358.682 44.599 356.572 39.3931C354.462 34.1872 353.91 28.4588 354.986 22.9323C356.061 17.4058 358.716 12.3292 362.614 8.34489C366.513 4.3605 371.48 1.64719 376.887 0.547907ZM348.347 48.8696H322.235V33.9663H348.347V48.8696Z" fill="#0D0D0D"/>
<path opacity="0.1" d="M251.362 95.0483C251.362 99.9639 250.415 104.832 248.574 109.373C246.734 113.914 244.036 118.041 240.636 121.517C239.461 122.717 238.21 123.832 236.892 124.855H251.023V177.536H236.442V125.199C234.069 126.983 231.488 128.473 228.754 129.631C224.31 131.512 219.548 132.48 214.739 132.48V117.507C217.624 117.507 220.482 116.926 223.148 115.798C225.814 114.669 228.236 113.015 230.277 110.929C232.317 108.844 233.936 106.368 235.04 103.643C236.144 100.918 236.713 97.9976 236.713 95.0483H251.362ZM382.325 120.557C387.838 120.557 393.227 122.228 397.812 125.358C402.395 128.489 405.969 132.938 408.078 138.144C410.188 143.35 410.74 149.078 409.665 154.605C408.589 160.131 405.934 165.208 402.035 169.192C398.137 173.176 393.171 175.89 387.763 176.989C382.356 178.088 376.751 177.525 371.658 175.368C366.564 173.212 362.211 169.56 359.148 164.875C356.085 160.19 354.45 154.682 354.45 149.047H368.82C368.82 151.777 369.612 154.446 371.096 156.715C372.58 158.985 374.689 160.754 377.157 161.799C379.624 162.844 382.34 163.117 384.96 162.585C387.579 162.052 389.986 160.737 391.874 158.807C393.763 156.877 395.05 154.417 395.57 151.74C396.091 149.062 395.824 146.287 394.802 143.764C393.78 141.242 392.049 139.087 389.828 137.57C387.607 136.053 384.996 135.244 382.325 135.244V120.557ZM286.519 95.0538C291.697 94.9531 296.807 96.2694 301.32 98.8664C308.769 103.178 313.085 109.691 315.326 117.978C310.815 122.464 305.849 127.484 301.513 132.123L316.027 132.151C315.961 138.087 316.162 144.151 315.951 150.079C315.803 154.23 314.048 159.322 311.978 162.87C308.04 169.689 301.59 174.608 294.074 176.524C286.595 178.433 278.68 177.205 272.093 173.113C265.226 168.84 260.791 162.368 258.895 154.428L260.628 152.71L297.739 114.85C295.088 111.984 291.491 110.181 287.615 110.036C283.775 109.883 280.037 111.317 277.244 114.013C272.401 118.698 272.823 123.547 272.83 129.672C272.859 133.168 272.84 136.664 272.774 140.16L258.174 140.147L258.151 129.36C258.149 126.973 258.095 123.878 258.322 121.534C258.964 115.307 261.528 109.451 265.641 104.812C271.237 98.5193 278.289 95.4326 286.519 95.0538ZM301.234 132.486C299.495 134.146 297.774 135.92 296.105 137.656C289.635 144.384 282.955 150.948 276.515 157.701C277.413 158.601 278.27 159.443 279.327 160.154C282.966 162.324 286.63 163.136 290.787 162.012C294.444 161.031 297.569 158.6 299.468 155.258C300.293 153.807 300.859 152.216 301.138 150.562C301.516 148.309 301.394 144.824 301.381 142.436C301.361 139.185 301.379 135.933 301.434 132.682C301.283 132.488 301.367 132.527 301.234 132.486ZM376.887 95.5962C382.294 94.497 387.899 95.0612 392.992 97.2175C398.086 99.3739 402.439 103.026 405.502 107.711C408.565 112.396 410.2 117.904 410.2 123.539H395.83C395.83 120.809 395.038 118.14 393.554 115.87C392.07 113.601 389.961 111.831 387.493 110.787C385.025 109.742 382.31 109.469 379.69 110.001C377.071 110.534 374.664 111.848 372.776 113.779C370.887 115.709 369.601 118.168 369.08 120.846C368.559 123.523 368.826 126.299 369.848 128.821C370.87 131.343 372.601 133.499 374.822 135.016C377.043 136.532 379.654 137.342 382.325 137.342V152.029C376.812 152.029 371.423 150.358 366.839 147.227C362.255 144.097 358.682 139.647 356.572 134.441C354.462 129.236 353.91 123.507 354.986 117.981C356.061 112.454 358.716 107.378 362.614 103.393C366.513 99.4088 371.48 96.6955 376.887 95.5962ZM348.347 143.918H322.235V129.015H348.347V143.918Z" fill="#0D0D0D"/>
<path opacity="0.1" d="M36.6235 186.576C36.6235 191.492 35.6762 196.36 33.8358 200.901C31.9953 205.442 29.2977 209.569 25.8969 213.045C24.7221 214.245 23.4709 215.36 22.1536 216.383H36.2845V269.064H21.703V216.727C19.3299 218.511 16.7495 220.001 14.0151 221.159C9.57176 223.04 4.8095 224.008 6.10352e-05 224.008V209.036C2.88575 209.036 5.74314 208.454 8.40916 207.326C11.0752 206.197 13.4978 204.543 15.5383 202.457C17.5787 200.372 19.1971 197.896 20.3014 195.171C21.4057 192.446 21.9743 189.526 21.9743 186.576H36.6235ZM167.587 212.085C173.1 212.085 178.489 213.756 183.073 216.886C187.657 220.017 191.23 224.466 193.339 229.672C195.449 234.878 196.001 240.606 194.926 246.133C193.85 251.659 191.195 256.736 187.297 260.72C183.398 264.704 178.432 267.418 173.025 268.517C167.617 269.617 162.012 269.053 156.919 266.896C151.826 264.74 147.472 261.088 144.409 256.403C141.346 251.718 139.711 246.21 139.711 240.575H154.081C154.081 243.305 154.873 245.974 156.357 248.243C157.841 250.513 159.951 252.283 162.418 253.327C164.886 254.372 167.602 254.645 170.221 254.113C172.841 253.58 175.247 252.265 177.136 250.335C179.025 248.405 180.311 245.945 180.832 243.268C181.353 240.59 181.086 237.815 180.063 235.293C179.041 232.77 177.31 230.615 175.089 229.098C172.868 227.582 170.258 226.772 167.587 226.772V212.085ZM71.7806 186.582C76.9583 186.481 82.0683 187.797 86.5812 190.394C94.0304 194.706 98.3459 201.219 100.587 209.506C96.076 213.992 91.1099 219.012 86.7739 223.651L101.288 223.679C101.222 229.615 101.424 235.679 101.212 241.608C101.065 245.759 99.309 250.85 97.2389 254.398C93.3013 261.217 86.8515 266.136 79.3354 268.052C71.8566 269.961 63.9417 268.733 57.354 264.641C50.4871 260.369 46.0519 253.896 44.1567 245.956L45.8889 244.238L82.9999 206.379C80.3489 203.512 76.7522 201.709 72.8761 201.564C69.0366 201.411 65.2988 202.845 62.5054 205.542C57.6622 210.226 58.0847 215.075 58.0913 221.2C58.1201 224.696 58.1015 228.192 58.0351 231.688L43.4352 231.675L43.4121 220.888C43.4108 218.501 43.3567 215.406 43.5829 213.062C44.2258 206.835 46.7892 200.979 50.9025 196.34C56.4986 190.047 63.5503 186.961 71.7806 186.582ZM86.4953 224.014C84.7566 225.674 83.0349 227.448 81.366 229.184C74.8961 235.912 68.2166 242.476 61.7761 249.229C62.6742 250.129 63.5318 250.972 64.5887 251.682C68.2272 253.852 71.8917 254.664 76.0484 253.54C79.7058 252.559 82.8304 250.129 84.7298 246.786C85.5546 245.335 86.1201 243.744 86.3995 242.09C86.7778 239.837 86.6549 236.352 86.6427 233.964C86.6222 230.713 86.6399 227.461 86.6955 224.21C86.5442 224.016 86.6281 224.055 86.4953 224.014ZM162.148 187.124C167.555 186.025 173.16 186.589 178.254 188.746C183.347 190.902 187.701 194.554 190.763 199.239C193.826 203.924 195.461 209.432 195.461 215.067H181.092C181.092 212.337 180.299 209.668 178.815 207.398C177.331 205.129 175.222 203.359 172.755 202.315C170.287 201.27 167.572 200.997 164.952 201.529C162.332 202.062 159.926 203.376 158.037 205.307C156.148 207.237 154.862 209.697 154.341 212.374C153.82 215.052 154.087 217.827 155.109 220.349C156.131 222.871 157.862 225.027 160.083 226.544C162.304 228.06 164.916 228.87 167.587 228.87V243.557C162.074 243.557 156.684 241.886 152.1 238.756C147.516 235.625 143.943 231.175 141.833 225.97C139.724 220.764 139.172 215.035 140.247 209.509C141.323 203.982 143.978 198.906 147.876 194.921C151.774 190.937 156.741 188.224 162.148 187.124ZM133.608 235.446H107.497V220.543H133.608V235.446Z" fill="#0D0D0D"/>
<path opacity="0.1" d="M251.362 377C251.362 381.916 250.415 386.783 248.575 391.325C246.734 395.866 244.036 399.993 240.636 403.468C239.461 404.669 238.21 405.784 236.892 406.806H251.023V459.488H236.442V407.15C234.069 408.935 231.488 410.425 228.754 411.582C224.311 413.463 219.548 414.432 214.739 414.432V399.459C217.625 399.459 220.482 398.878 223.148 397.749C225.814 396.621 228.237 394.967 230.277 392.881C232.317 390.796 233.936 388.319 235.04 385.595C236.144 382.87 236.713 379.949 236.713 377H251.362ZM382.325 402.509C387.838 402.509 393.227 404.18 397.812 407.31C402.396 410.44 405.969 414.89 408.078 420.096C410.188 425.302 410.74 431.03 409.665 436.556C408.589 442.083 405.934 447.16 402.035 451.144C398.137 455.128 393.171 457.841 387.764 458.941C382.356 460.04 376.751 459.476 371.658 457.32C366.564 455.163 362.211 451.512 359.148 446.826C356.085 442.141 354.45 436.633 354.45 430.998H368.82C368.82 433.728 369.612 436.397 371.096 438.667C372.58 440.937 374.689 442.706 377.157 443.751C379.624 444.795 382.34 445.069 384.96 444.536C387.58 444.003 389.986 442.689 391.875 440.759C393.763 438.828 395.05 436.369 395.571 433.691C396.092 431.014 395.824 428.238 394.802 425.716C393.78 423.194 392.049 421.038 389.828 419.522C387.607 418.005 384.996 417.196 382.325 417.196V402.509ZM286.519 377.006C291.697 376.905 296.807 378.221 301.32 380.818C308.769 385.13 313.085 391.643 315.326 399.93C310.815 404.415 305.849 409.436 301.513 414.074L316.027 414.103C315.961 420.038 316.162 426.103 315.951 432.031C315.803 436.182 314.048 441.273 311.978 444.822C308.04 451.641 301.59 456.56 294.074 458.475C286.595 460.384 278.68 459.156 272.093 455.064C265.226 450.792 260.791 444.319 258.896 436.38L260.628 434.662L297.739 396.802C295.088 393.936 291.491 392.133 287.615 391.988C283.775 391.835 280.038 393.268 277.244 395.965C272.401 400.65 272.823 405.498 272.83 411.624C272.859 415.12 272.84 418.616 272.774 422.111L258.174 422.098L258.151 411.312C258.15 408.925 258.096 405.829 258.322 403.486C258.965 397.259 261.528 391.402 265.641 386.763C271.237 380.471 278.289 377.384 286.519 377.006ZM301.234 414.438C299.495 416.098 297.774 417.872 296.105 419.608C289.635 426.336 282.955 432.9 276.515 439.653C277.413 440.553 278.271 441.395 279.327 442.105C282.966 444.275 286.63 445.088 290.787 443.964C294.445 442.983 297.569 440.552 299.469 437.21C300.293 435.758 300.859 434.168 301.138 432.514C301.517 430.261 301.394 426.776 301.381 424.388C301.361 421.136 301.379 417.885 301.434 414.633C301.283 414.439 301.367 414.479 301.234 414.438ZM376.887 377.548C382.294 376.449 387.899 377.013 392.993 379.169C398.086 381.326 402.439 384.977 405.502 389.662C408.565 394.348 410.2 399.856 410.2 405.49H395.83C395.83 402.76 395.038 400.092 393.554 397.822C392.07 395.552 389.961 393.783 387.493 392.738C385.026 391.694 382.31 391.42 379.691 391.953C377.071 392.485 374.665 393.8 372.776 395.73C370.887 397.661 369.601 400.12 369.08 402.798C368.559 405.475 368.826 408.25 369.848 410.772C370.87 413.295 372.601 415.451 374.822 416.967C377.043 418.484 379.654 419.294 382.325 419.294V433.981C376.812 433.981 371.423 432.309 366.839 429.179C362.255 426.048 358.682 421.599 356.572 416.393C354.462 411.187 353.91 405.459 354.986 399.932C356.062 394.406 358.716 389.329 362.615 385.345C366.513 381.36 371.48 378.647 376.887 377.548ZM348.347 425.87H322.235V410.966H348.347V425.87Z" fill="#0D0D0D"/>
<path opacity="0.1" d="M36.6235 377C36.6235 381.916 35.6762 386.783 33.8358 391.325C31.9953 395.866 29.2977 399.993 25.8969 403.468C24.7221 404.669 23.4709 405.784 22.1536 406.806H36.2845V459.488H21.703V407.15C19.3299 408.935 16.7495 410.425 14.0151 411.582C9.57176 413.463 4.8095 414.432 6.10352e-05 414.432V399.459C2.88575 399.459 5.74314 398.878 8.40916 397.749C11.0752 396.621 13.4978 394.967 15.5383 392.881C17.5787 390.796 19.1971 388.319 20.3014 385.595C21.4057 382.87 21.9743 379.949 21.9743 377H36.6235ZM167.587 402.509C173.1 402.509 178.489 404.18 183.073 407.31C187.657 410.44 191.23 414.89 193.339 420.096C195.449 425.302 196.001 431.03 194.926 436.556C193.85 442.083 191.195 447.16 187.297 451.144C183.398 455.128 178.432 457.841 173.025 458.941C167.617 460.04 162.012 459.476 156.919 457.32C151.826 455.163 147.472 451.512 144.409 446.826C141.346 442.141 139.711 436.633 139.711 430.998H154.081C154.081 433.728 154.873 436.397 156.357 438.667C157.841 440.937 159.951 442.706 162.418 443.751C164.886 444.795 167.602 445.069 170.221 444.536C172.841 444.003 175.247 442.689 177.136 440.759C179.025 438.828 180.311 436.369 180.832 433.691C181.353 431.014 181.086 428.238 180.063 425.716C179.041 423.194 177.31 421.038 175.089 419.522C172.868 418.005 170.258 417.196 167.587 417.196V402.509ZM71.7806 377.006C76.9583 376.905 82.0683 378.221 86.5812 380.818C94.0304 385.13 98.3459 391.643 100.587 399.93C96.076 404.415 91.1099 409.436 86.7739 414.074L101.288 414.103C101.222 420.038 101.424 426.103 101.212 432.031C101.065 436.182 99.309 441.273 97.2389 444.822C93.3013 451.641 86.8515 456.56 79.3354 458.475C71.8566 460.384 63.9417 459.156 57.354 455.064C50.4871 450.792 46.0519 444.319 44.1567 436.38L45.8889 434.662L82.9999 396.802C80.3489 393.936 76.7522 392.133 72.8761 391.988C69.0366 391.835 65.2988 393.268 62.5054 395.965C57.6622 400.65 58.0847 405.498 58.0913 411.624C58.1201 415.12 58.1015 418.616 58.0351 422.111L43.4352 422.098L43.4121 411.312C43.4108 408.925 43.3567 405.829 43.5829 403.486C44.2258 397.259 46.7892 391.402 50.9025 386.763C56.4986 380.471 63.5503 377.384 71.7806 377.006ZM86.4953 414.438C84.7566 416.098 83.0349 417.872 81.366 419.608C74.8961 426.336 68.2166 432.9 61.7761 439.653C62.6742 440.553 63.5318 441.395 64.5887 442.105C68.2272 444.275 71.8917 445.088 76.0484 443.964C79.7058 442.983 82.8304 440.552 84.7298 437.21C85.5546 435.758 86.1201 434.168 86.3995 432.514C86.7778 430.261 86.6549 426.776 86.6427 424.388C86.6222 421.136 86.6399 417.885 86.6955 414.633C86.5442 414.439 86.6281 414.479 86.4953 414.438ZM162.148 377.548C167.555 376.449 173.16 377.013 178.254 379.169C183.347 381.326 187.701 384.977 190.763 389.662C193.826 394.348 195.461 399.856 195.461 405.49H181.092C181.092 402.76 180.299 400.092 178.815 397.822C177.331 395.552 175.222 393.783 172.755 392.738C170.287 391.694 167.572 391.42 164.952 391.953C162.332 392.485 159.926 393.8 158.037 395.73C156.148 397.661 154.862 400.12 154.341 402.798C153.82 405.475 154.087 408.25 155.109 410.772C156.131 413.295 157.862 415.451 160.083 416.967C162.304 418.484 164.916 419.294 167.587 419.294V433.981C162.074 433.981 156.684 432.309 152.1 429.179C147.516 426.048 143.943 421.599 141.833 416.393C139.724 411.187 139.172 405.459 140.247 399.932C141.323 394.406 143.978 389.329 147.876 385.345C151.774 381.36 156.741 378.647 162.148 377.548ZM133.608 425.87H107.497V410.966H133.608V425.87Z" fill="#0D0D0D"/>
<path opacity="0.1" d="M36.6235 281.512C36.6235 286.427 35.6762 291.295 33.8358 295.836C31.9953 300.378 29.2977 304.504 25.8969 307.98C24.7221 309.181 23.4709 310.295 22.1536 311.318H36.2845V364H21.703V311.662C19.3299 313.446 16.7495 314.936 14.0151 316.094C9.57176 317.975 4.8095 318.943 6.10352e-05 318.943V303.971C2.88575 303.971 5.74314 303.39 8.40916 302.261C11.0752 301.132 13.4978 299.478 15.5383 297.393C17.5787 295.307 19.1971 292.831 20.3014 290.106C21.4057 287.382 21.9743 284.461 21.9743 281.512H36.6235ZM167.587 307.02C173.1 307.02 178.489 308.691 183.073 311.822C187.657 314.952 191.23 319.402 193.339 324.608C195.449 329.813 196.001 335.542 194.926 341.068C193.85 346.594 191.195 351.671 187.297 355.655C183.398 359.64 178.432 362.353 173.025 363.452C167.617 364.552 162.012 363.988 156.919 361.832C151.826 359.675 147.472 356.024 144.409 351.338C141.346 346.653 139.711 341.145 139.711 335.51H154.081C154.081 338.24 154.873 340.909 156.357 343.178C157.841 345.448 159.951 347.218 162.418 348.262C164.886 349.307 167.602 349.581 170.221 349.048C172.841 348.515 175.247 347.201 177.136 345.27C179.025 343.34 180.311 340.881 180.832 338.203C181.353 335.525 181.086 332.75 180.063 330.228C179.041 327.706 177.31 325.55 175.089 324.033C172.868 322.517 170.258 321.707 167.587 321.707V307.02ZM71.7806 281.517C76.9583 281.417 82.0683 282.733 86.5812 285.33C94.0304 289.642 98.3459 296.155 100.587 304.441C96.076 308.927 91.1099 313.947 86.7739 318.586L101.288 318.614C101.222 324.55 101.424 330.615 101.212 336.543C101.065 340.694 99.309 345.785 97.2389 349.334C93.3013 356.152 86.8515 361.072 79.3354 362.987C71.8566 364.896 63.9417 363.668 57.354 359.576C50.4871 355.304 46.0519 348.831 44.1567 340.892L45.8889 339.173L82.9999 301.314C80.3489 298.447 76.7522 296.644 72.8761 296.5C69.0366 296.347 65.2988 297.78 62.5054 300.477C57.6622 305.162 58.0847 310.01 58.0913 316.135C58.1201 319.631 58.1015 323.127 58.0351 326.623L43.4352 326.61L43.4121 315.824C43.4108 313.436 43.3567 310.341 43.5829 307.997C44.2258 301.771 46.7892 295.914 50.9025 291.275C56.4986 284.983 63.5503 281.896 71.7806 281.517ZM86.4953 318.95C84.7566 320.609 83.0349 322.384 81.366 324.119C74.8961 330.847 68.2166 337.411 61.7761 344.164C62.6742 345.064 63.5318 345.907 64.5887 346.617C68.2272 348.787 71.8917 349.599 76.0484 348.475C79.7058 347.495 82.8304 345.064 84.7298 341.721C85.5546 340.27 86.1201 338.68 86.3995 337.025C86.7778 334.772 86.6549 331.288 86.6427 328.9C86.6222 325.648 86.6399 322.396 86.6955 319.145C86.5442 318.951 86.6281 318.99 86.4953 318.95ZM162.148 282.06C167.555 280.96 173.16 281.525 178.254 283.681C183.347 285.837 187.701 289.489 190.763 294.174C193.826 298.859 195.461 304.367 195.461 310.002H181.092C181.092 307.272 180.299 304.604 178.815 302.334C177.331 300.064 175.222 298.295 172.755 297.25C170.287 296.205 167.572 295.932 164.952 296.465C162.332 296.997 159.926 298.312 158.037 300.242C156.148 302.172 154.862 304.632 154.341 307.309C153.82 309.987 154.087 312.762 155.109 315.284C156.131 317.806 157.862 319.962 160.083 321.479C162.304 322.996 164.916 323.805 167.587 323.805V338.492C162.074 338.492 156.684 336.821 152.1 333.691C147.516 330.56 143.943 326.111 141.833 320.905C139.724 315.699 139.172 309.971 140.247 304.444C141.323 298.918 143.978 293.841 147.876 289.857C151.774 285.872 156.741 283.159 162.148 282.06ZM133.608 330.381H107.497V315.478H133.608V330.381Z" fill="#0D0D0D"/>
<path opacity="0.1" d="M36.6235 0C36.6235 4.91556 35.6762 9.78326 33.8357 14.3246C31.9952 18.866 29.2976 22.9925 25.8969 26.4683C24.722 27.6691 23.4708 28.7837 22.1536 29.8065H36.2844V82.4879H21.7029V30.1503C19.3298 31.9347 16.7494 33.4247 14.015 34.5823C9.5717 36.4634 4.80943 37.4316 0 37.4316V22.4591C2.88568 22.4591 5.74308 21.878 8.4091 20.7493C11.0751 19.6206 13.4977 17.9666 15.5382 15.8811C17.5786 13.7956 19.1971 11.3195 20.3013 8.59465C21.4056 5.86984 21.9742 2.9493 21.9742 0H36.6235ZM167.587 25.5086C173.1 25.5086 178.489 27.1795 183.073 30.3099C187.657 33.4405 191.23 37.8901 193.339 43.0959C195.449 48.3017 196.001 54.0299 194.926 59.5563C193.85 65.0827 191.195 70.1596 187.297 74.1438C183.398 78.128 178.432 80.8414 173.025 81.9406C167.617 83.0401 162.012 82.4762 156.919 80.3198C151.826 78.1634 147.472 74.5119 144.409 69.8265C141.346 65.1415 139.711 59.6332 139.711 53.9985H154.081C154.081 56.7284 154.873 59.3972 156.357 61.6668C157.841 63.9368 159.951 65.7061 162.418 66.7505C164.886 67.7953 167.602 68.0688 170.221 67.5363C172.841 67.0035 175.247 65.6888 177.136 63.7588C179.025 61.8283 180.311 59.369 180.832 56.6914C181.353 54.0138 181.086 51.2383 180.063 48.7161C179.041 46.194 177.31 44.0384 175.089 42.5215C172.868 41.0051 170.258 40.1955 167.587 40.1955V25.5086ZM71.7805 0.00550662C76.9583 -0.095213 82.0682 1.22108 86.5811 3.81805C94.0303 8.12994 98.3458 14.6431 100.587 22.9295C96.076 27.4152 91.1098 32.4358 86.7738 37.0744L101.288 37.1027C101.222 43.0383 101.424 49.1028 101.212 55.0312C101.065 59.1821 99.3089 64.2735 97.2389 67.8219C93.3013 74.6408 86.8515 79.5598 79.3353 81.4754C71.8566 83.3845 63.9416 82.1564 57.3539 78.0643C50.487 73.7921 46.0518 67.3192 44.1567 59.3799L45.8888 57.6616L82.9998 19.8021C80.3489 16.9357 76.7521 15.1327 72.876 14.9878C69.0366 14.8348 65.2988 16.2683 62.5054 18.9652C57.6621 23.6501 58.0846 28.4983 58.0913 34.6236C58.1201 38.1195 58.1014 41.6157 58.0351 45.1114L43.4351 45.0985L43.412 34.3121C43.4108 31.9248 43.3567 28.8293 43.5829 26.4856C44.2258 20.259 46.7892 14.4023 50.9025 9.7632C56.4986 3.47096 63.5503 0.38425 71.7805 0.00550662ZM86.4952 37.4379C84.7566 39.0976 83.0349 40.8718 81.366 42.6077C74.8961 49.3356 68.2165 55.8995 61.7761 62.6528C62.6741 63.5525 63.5318 64.3951 64.5887 65.1052C68.2271 67.2753 71.8916 68.0877 76.0483 66.9636C79.7057 65.9828 82.8303 63.5521 84.7298 60.2096C85.5546 58.7584 86.1201 57.1678 86.3995 55.5137C86.7778 53.2606 86.6548 49.7758 86.6426 47.3878C86.6221 44.1362 86.6399 40.8847 86.6954 37.6333C86.5441 37.4394 86.628 37.4786 86.4952 37.4379ZM162.148 0.547907C167.555 -0.551375 173.16 0.0128829 178.254 2.16921C183.347 4.32554 187.7 7.97737 190.763 12.6625C193.826 17.3476 195.461 22.8557 195.461 28.4904H181.091C181.091 25.7605 180.299 23.0919 178.815 20.8221C177.331 18.5522 175.222 16.783 172.754 15.7383C170.287 14.6936 167.572 14.4202 164.952 14.9528C162.332 15.4854 159.926 16.8 158.037 18.7303C156.148 20.6607 154.862 23.1202 154.341 25.7977C153.82 28.4751 154.087 31.2503 155.109 33.7724C156.131 36.2946 157.862 38.4507 160.083 39.9673C162.304 41.484 164.916 42.2936 167.587 42.2936V56.9806C162.073 56.9806 156.684 55.3095 152.1 52.1791C147.516 49.0484 143.943 44.599 141.833 39.3931C139.724 34.1872 139.171 28.4588 140.247 22.9323C141.323 17.4058 143.978 12.3292 147.876 8.34489C151.774 4.3605 156.741 1.64719 162.148 0.547907ZM133.608 48.8696H107.497V33.9663H133.608V48.8696Z" fill="#0D0D0D"/>
<path opacity="0.1" d="M36.6235 95.0483C36.6235 99.9639 35.6762 104.832 33.8358 109.373C31.9953 113.914 29.2977 118.041 25.8969 121.517C24.7221 122.717 23.4709 123.832 22.1536 124.855H36.2845V177.536H21.703V125.199C19.3299 126.983 16.7495 128.473 14.0151 129.631C9.57176 131.512 4.8095 132.48 6.10352e-05 132.48V117.507C2.88575 117.507 5.74314 116.926 8.40916 115.798C11.0752 114.669 13.4978 113.015 15.5383 110.929C17.5787 108.844 19.1971 106.368 20.3014 103.643C21.4057 100.918 21.9743 97.9976 21.9743 95.0483H36.6235ZM167.587 120.557C173.1 120.557 178.489 122.228 183.073 125.358C187.657 128.489 191.23 132.938 193.339 138.144C195.449 143.35 196.001 149.078 194.926 154.605C193.85 160.131 191.195 165.208 187.297 169.192C183.398 173.176 178.432 175.89 173.025 176.989C167.617 178.088 162.012 177.525 156.919 175.368C151.826 173.212 147.472 169.56 144.409 164.875C141.346 160.19 139.711 154.682 139.711 149.047H154.081C154.081 151.777 154.873 154.446 156.357 156.715C157.841 158.985 159.951 160.754 162.418 161.799C164.886 162.844 167.602 163.117 170.221 162.585C172.841 162.052 175.247 160.737 177.136 158.807C179.025 156.877 180.311 154.417 180.832 151.74C181.353 149.062 181.086 146.287 180.063 143.764C179.041 141.242 177.31 139.087 175.089 137.57C172.868 136.053 170.258 135.244 167.587 135.244V120.557ZM71.7806 95.0538C76.9583 94.9531 82.0683 96.2694 86.5812 98.8664C94.0304 103.178 98.3459 109.691 100.587 117.978C96.076 122.464 91.1099 127.484 86.7739 132.123L101.288 132.151C101.222 138.087 101.424 144.151 101.212 150.079C101.065 154.23 99.309 159.322 97.2389 162.87C93.3013 169.689 86.8515 174.608 79.3354 176.524C71.8566 178.433 63.9417 177.205 57.354 173.113C50.4871 168.84 46.0519 162.368 44.1567 154.428L45.8889 152.71L82.9999 114.85C80.3489 111.984 76.7522 110.181 72.8761 110.036C69.0366 109.883 65.2988 111.317 62.5054 114.013C57.6622 118.698 58.0847 123.547 58.0913 129.672C58.1201 133.168 58.1015 136.664 58.0351 140.16L43.4352 140.147L43.4121 129.36C43.4108 126.973 43.3567 123.878 43.5829 121.534C44.2258 115.307 46.7892 109.451 50.9025 104.812C56.4986 98.5193 63.5503 95.4326 71.7806 95.0538ZM86.4953 132.486C84.7566 134.146 83.0349 135.92 81.366 137.656C74.8961 144.384 68.2166 150.948 61.7761 157.701C62.6742 158.601 63.5318 159.443 64.5887 160.154C68.2272 162.324 71.8917 163.136 76.0484 162.012C79.7058 161.031 82.8304 158.6 84.7298 155.258C85.5546 153.807 86.1201 152.216 86.3995 150.562C86.7778 148.309 86.6549 144.824 86.6427 142.436C86.6222 139.185 86.6399 135.933 86.6955 132.682C86.5442 132.488 86.6281 132.527 86.4953 132.486ZM162.148 95.5962C167.555 94.497 173.16 95.0612 178.254 97.2175C183.347 99.3739 187.701 103.026 190.763 107.711C193.826 112.396 195.461 117.904 195.461 123.539H181.092C181.092 120.809 180.299 118.14 178.815 115.87C177.331 113.601 175.222 111.831 172.755 110.787C170.287 109.742 167.572 109.469 164.952 110.001C162.332 110.534 159.926 111.848 158.037 113.779C156.148 115.709 154.862 118.168 154.341 120.846C153.82 123.523 154.087 126.299 155.109 128.821C156.131 131.343 157.862 133.499 160.083 135.016C162.304 136.532 164.916 137.342 167.587 137.342V152.029C162.074 152.029 156.684 150.358 152.1 147.227C147.516 144.097 143.943 139.647 141.833 134.441C139.724 129.236 139.172 123.507 140.247 117.981C141.323 112.454 143.978 107.378 147.876 103.393C151.774 99.4088 156.741 96.6955 162.148 95.5962ZM133.608 143.918H107.497V129.015H133.608V143.918Z" fill="#0D0D0D"/>
<path opacity="0.1" d="M691.362 186.576C691.362 191.492 690.415 196.36 688.574 200.901C686.734 205.442 684.036 209.569 680.636 213.045C679.461 214.245 678.21 215.36 676.892 216.383H691.023V269.064H676.442V216.727C674.069 218.511 671.488 220.001 668.754 221.159C664.31 223.04 659.548 224.008 654.739 224.008V209.036C657.624 209.036 660.482 208.454 663.148 207.326C665.814 206.197 668.236 204.543 670.277 202.457C672.317 200.372 673.936 197.896 675.04 195.171C676.144 192.446 676.713 189.526 676.713 186.576H691.362ZM822.325 212.085C827.838 212.085 833.227 213.756 837.812 216.886C842.395 220.017 845.969 224.466 848.078 229.672C850.188 234.878 850.74 240.606 849.665 246.133C848.589 251.659 845.934 256.736 842.035 260.72C838.137 264.704 833.171 267.418 827.763 268.517C822.356 269.617 816.751 269.053 811.658 266.896C806.564 264.74 802.211 261.088 799.148 256.403C796.085 251.718 794.45 246.21 794.45 240.575H808.82C808.82 243.305 809.612 245.974 811.096 248.243C812.58 250.513 814.689 252.283 817.157 253.327C819.624 254.372 822.34 254.645 824.96 254.113C827.579 253.58 829.986 252.265 831.874 250.335C833.763 248.405 835.05 245.945 835.57 243.268C836.091 240.59 835.824 237.815 834.802 235.293C833.78 232.77 832.049 230.615 829.828 229.098C827.607 227.582 824.996 226.772 822.325 226.772V212.085ZM726.519 186.582C731.697 186.481 736.807 187.797 741.32 190.394C748.769 194.706 753.085 201.219 755.326 209.506C750.815 213.992 745.849 219.012 741.513 223.651L756.027 223.679C755.961 229.615 756.162 235.679 755.951 241.608C755.803 245.759 754.048 250.85 751.978 254.398C748.04 261.217 741.59 266.136 734.074 268.052C726.595 269.961 718.68 268.733 712.093 264.641C705.226 260.369 700.791 253.896 698.895 245.956L700.628 244.238L737.739 206.379C735.088 203.512 731.491 201.709 727.615 201.564C723.775 201.411 720.037 202.845 717.244 205.542C712.401 210.226 712.823 215.075 712.83 221.2C712.859 224.696 712.84 228.192 712.774 231.688L698.174 231.675L698.151 220.888C698.149 218.501 698.095 215.406 698.322 213.062C698.964 206.835 701.528 200.979 705.641 196.34C711.237 190.047 718.289 186.961 726.519 186.582ZM741.234 224.014C739.495 225.674 737.774 227.448 736.105 229.184C729.635 235.912 722.955 242.476 716.515 249.229C717.413 250.129 718.27 250.972 719.327 251.682C722.966 253.852 726.63 254.664 730.787 253.54C734.444 252.559 737.569 250.129 739.468 246.786C740.293 245.335 740.859 243.744 741.138 242.09C741.516 239.837 741.394 236.352 741.381 233.964C741.361 230.713 741.379 227.461 741.434 224.21C741.283 224.016 741.367 224.055 741.234 224.014ZM816.887 187.124C822.294 186.025 827.899 186.589 832.992 188.746C838.086 190.902 842.439 194.554 845.502 199.239C848.565 203.924 850.2 209.432 850.2 215.067H835.83C835.83 212.337 835.038 209.668 833.554 207.398C832.07 205.129 829.961 203.359 827.493 202.315C825.025 201.27 822.31 200.997 819.69 201.529C817.071 202.062 814.664 203.376 812.776 205.307C810.887 207.237 809.601 209.697 809.08 212.374C808.559 215.052 808.826 217.827 809.848 220.349C810.87 222.871 812.601 225.027 814.822 226.544C817.043 228.06 819.654 228.87 822.325 228.87V243.557C816.812 243.557 811.423 241.886 806.839 238.756C802.255 235.625 798.682 231.175 796.572 225.97C794.462 220.764 793.91 215.035 794.986 209.509C796.061 203.982 798.716 198.906 802.614 194.921C806.513 190.937 811.48 188.224 816.887 187.124ZM788.347 235.446H762.235V220.543H788.347V235.446Z" fill="#0D0D0D"/>
<path opacity="0.1" d="M691.63 281.512C691.63 286.427 690.683 291.295 688.842 295.836C687.002 300.378 684.304 304.504 680.904 307.98C679.729 309.181 678.477 310.295 677.16 311.318H691.291V364H676.71V311.662C674.336 313.446 671.756 314.936 669.022 316.094C664.578 317.975 659.816 318.943 655.007 318.943V303.971C657.892 303.971 660.75 303.39 663.416 302.261C666.082 301.132 668.504 299.478 670.545 297.393C672.585 295.307 674.204 292.831 675.308 290.106C676.412 287.382 676.981 284.461 676.981 281.512H691.63ZM822.593 307.02C828.106 307.02 833.495 308.691 838.08 311.822C842.663 314.952 846.236 319.402 848.346 324.608C850.456 329.813 851.008 335.542 849.932 341.068C848.857 346.594 846.202 351.671 842.303 355.655C838.405 359.64 833.439 362.353 828.031 363.452C822.624 364.552 817.019 363.988 811.926 361.832C806.832 359.675 802.479 356.024 799.416 351.338C796.353 346.653 794.718 341.145 794.718 335.51H809.088C809.088 338.24 809.88 340.909 811.364 343.178C812.848 345.448 814.957 347.218 817.425 348.262C819.892 349.307 822.608 349.581 825.228 349.048C827.847 348.515 830.254 347.201 832.142 345.27C834.031 343.34 835.317 340.881 835.838 338.203C836.359 335.525 836.092 332.75 835.07 330.228C834.048 327.706 832.317 325.55 830.096 324.033C827.875 322.517 825.264 321.707 822.593 321.707V307.02ZM726.787 281.517C731.965 281.417 737.075 282.733 741.588 285.33C749.037 289.642 753.352 296.155 755.594 304.441C751.083 308.927 746.116 313.947 741.78 318.586L756.295 318.614C756.229 324.55 756.43 330.615 756.219 336.543C756.071 340.694 754.316 345.785 752.246 349.334C748.308 356.152 741.858 361.072 734.342 362.987C726.863 364.896 718.948 363.668 712.361 359.576C705.494 355.304 701.058 348.831 699.163 340.892L700.895 339.173L738.006 301.314C735.356 298.447 731.759 296.644 727.883 296.5C724.043 296.347 720.305 297.78 717.512 300.477C712.669 305.162 713.091 310.01 713.098 316.135C713.127 319.631 713.108 323.127 713.042 326.623L698.442 326.61L698.419 315.824C698.417 313.436 698.363 310.341 698.59 307.997C699.232 301.771 701.796 295.914 705.909 291.275C711.505 284.983 718.557 281.896 726.787 281.517ZM741.502 318.95C739.763 320.609 738.042 322.384 736.373 324.119C729.903 330.847 723.223 337.411 716.783 344.164C717.681 345.064 718.538 345.907 719.595 346.617C723.234 348.787 726.898 349.599 731.055 348.475C734.712 347.495 737.837 345.064 739.736 341.721C740.561 340.27 741.127 338.68 741.406 337.025C741.784 334.772 741.661 331.288 741.649 328.9C741.629 325.648 741.647 322.396 741.702 319.145C741.551 318.951 741.635 318.99 741.502 318.95ZM817.155 282.06C822.562 280.96 828.167 281.525 833.26 283.681C838.354 285.837 842.707 289.489 845.77 294.174C848.833 298.859 850.468 304.367 850.468 310.002H836.098C836.098 307.272 835.306 304.604 833.822 302.334C832.338 300.064 830.229 298.295 827.761 297.25C825.293 296.205 822.578 295.932 819.958 296.465C817.339 296.997 814.932 298.312 813.044 300.242C811.155 302.172 809.869 304.632 809.348 307.309C808.827 309.987 809.094 312.762 810.116 315.284C811.138 317.806 812.869 319.962 815.09 321.479C817.311 322.996 819.922 323.805 822.593 323.805V338.492C817.08 338.492 811.691 336.821 807.107 333.691C802.523 330.56 798.95 326.111 796.84 320.905C794.73 315.699 794.178 309.971 795.254 304.444C796.329 298.918 798.984 293.841 802.882 289.857C806.781 285.872 811.748 283.159 817.155 282.06ZM788.615 330.381H762.503V315.478H788.615V330.381Z" fill="#0D0D0D"/>
<path opacity="0.1" d="M691.362 0C691.362 4.91556 690.415 9.78326 688.574 14.3246C686.734 18.866 684.036 22.9925 680.636 26.4683C679.461 27.6691 678.21 28.7837 676.892 29.8065H691.023V82.4879H676.442V30.1503C674.069 31.9347 671.488 33.4247 668.754 34.5823C664.31 36.4634 659.548 37.4316 654.739 37.4316V22.4591C657.624 22.4591 660.482 21.878 663.148 20.7493C665.814 19.6206 668.236 17.9666 670.277 15.8811C672.317 13.7956 673.936 11.3195 675.04 8.59465C676.144 5.86984 676.713 2.9493 676.713 0H691.362ZM822.325 25.5086C827.838 25.5086 833.227 27.1795 837.812 30.3099C842.395 33.4405 845.969 37.8901 848.078 43.0959C850.188 48.3017 850.74 54.0299 849.665 59.5563C848.589 65.0827 845.934 70.1596 842.035 74.1438C838.137 78.128 833.171 80.8414 827.763 81.9406C822.356 83.0401 816.751 82.4762 811.658 80.3198C806.564 78.1634 802.211 74.5119 799.148 69.8265C796.085 65.1415 794.45 59.6332 794.45 53.9985H808.82C808.82 56.7284 809.612 59.3972 811.096 61.6668C812.58 63.9368 814.689 65.7061 817.157 66.7505C819.624 67.7953 822.34 68.0688 824.96 67.5363C827.579 67.0035 829.986 65.6888 831.874 63.7588C833.763 61.8283 835.05 59.369 835.57 56.6914C836.091 54.0138 835.824 51.2383 834.802 48.7161C833.78 46.194 832.049 44.0384 829.828 42.5215C827.607 41.0051 824.996 40.1955 822.325 40.1955V25.5086ZM726.519 0.00550662C731.697 -0.095213 736.807 1.22108 741.32 3.81805C748.769 8.12994 753.085 14.6431 755.326 22.9295C750.815 27.4152 745.849 32.4358 741.513 37.0744L756.027 37.1027C755.961 43.0383 756.162 49.1028 755.951 55.0312C755.803 59.1821 754.048 64.2735 751.978 67.8219C748.04 74.6408 741.59 79.5598 734.074 81.4754C726.595 83.3845 718.68 82.1564 712.093 78.0643C705.226 73.7921 700.791 67.3192 698.895 59.3799L700.628 57.6616L737.739 19.8021C735.088 16.9357 731.491 15.1327 727.615 14.9878C723.775 14.8348 720.037 16.2683 717.244 18.9652C712.401 23.6501 712.823 28.4983 712.83 34.6236C712.859 38.1195 712.84 41.6157 712.774 45.1114L698.174 45.0985L698.151 34.3121C698.149 31.9248 698.095 28.8293 698.322 26.4856C698.964 20.259 701.528 14.4023 705.641 9.7632C711.237 3.47096 718.289 0.38425 726.519 0.00550662ZM741.234 37.4379C739.495 39.0976 737.774 40.8718 736.105 42.6077C729.635 49.3356 722.955 55.8995 716.515 62.6528C717.413 63.5525 718.27 64.3951 719.327 65.1052C722.966 67.2753 726.63 68.0877 730.787 66.9636C734.444 65.9828 737.569 63.5521 739.468 60.2096C740.293 58.7584 740.859 57.1678 741.138 55.5137C741.516 53.2606 741.394 49.7758 741.381 47.3878C741.361 44.1362 741.379 40.8847 741.434 37.6333C741.283 37.4394 741.367 37.4786 741.234 37.4379ZM816.887 0.547907C822.294 -0.551375 827.899 0.0128829 832.992 2.16921C838.086 4.32554 842.439 7.97737 845.502 12.6625C848.565 17.3476 850.2 22.8557 850.2 28.4904H835.83C835.83 25.7605 835.038 23.0919 833.554 20.8221C832.07 18.5522 829.961 16.783 827.493 15.7383C825.025 14.6936 822.31 14.4202 819.69 14.9528C817.071 15.4854 814.664 16.8 812.776 18.7303C810.887 20.6607 809.601 23.1202 809.08 25.7977C808.559 28.4751 808.826 31.2503 809.848 33.7724C810.87 36.2946 812.601 38.4507 814.822 39.9673C817.043 41.484 819.654 42.2936 822.325 42.2936V56.9806C816.812 56.9806 811.423 55.3095 806.839 52.1791C802.255 49.0484 798.682 44.599 796.572 39.3931C794.462 34.1872 793.91 28.4588 794.986 22.9323C796.061 17.4058 798.716 12.3292 802.614 8.34489C806.513 4.3605 811.48 1.64719 816.887 0.547907ZM788.347 48.8696H762.235V33.9663H788.347V48.8696Z" fill="#0D0D0D"/>
<path opacity="0.1" d="M691.362 95.0483C691.362 99.9639 690.415 104.832 688.574 109.373C686.734 113.914 684.036 118.041 680.636 121.517C679.461 122.717 678.21 123.832 676.892 124.855H691.023V177.536H676.442V125.199C674.069 126.983 671.488 128.473 668.754 129.631C664.31 131.512 659.548 132.48 654.739 132.48V117.507C657.624 117.507 660.482 116.926 663.148 115.798C665.814 114.669 668.236 113.015 670.277 110.929C672.317 108.844 673.936 106.368 675.04 103.643C676.144 100.918 676.713 97.9976 676.713 95.0483H691.362ZM822.325 120.557C827.838 120.557 833.227 122.228 837.812 125.358C842.395 128.489 845.969 132.938 848.078 138.144C850.188 143.35 850.74 149.078 849.665 154.605C848.589 160.131 845.934 165.208 842.035 169.192C838.137 173.176 833.171 175.89 827.763 176.989C822.356 178.088 816.751 177.525 811.658 175.368C806.564 173.212 802.211 169.56 799.148 164.875C796.085 160.19 794.45 154.682 794.45 149.047H808.82C808.82 151.777 809.612 154.446 811.096 156.715C812.58 158.985 814.689 160.754 817.157 161.799C819.624 162.844 822.34 163.117 824.96 162.585C827.579 162.052 829.986 160.737 831.874 158.807C833.763 156.877 835.05 154.417 835.57 151.74C836.091 149.062 835.824 146.287 834.802 143.764C833.78 141.242 832.049 139.087 829.828 137.57C827.607 136.053 824.996 135.244 822.325 135.244V120.557ZM726.519 95.0538C731.697 94.9531 736.807 96.2694 741.32 98.8664C748.769 103.178 753.085 109.691 755.326 117.978C750.815 122.464 745.849 127.484 741.513 132.123L756.027 132.151C755.961 138.087 756.162 144.151 755.951 150.079C755.803 154.23 754.048 159.322 751.978 162.87C748.04 169.689 741.59 174.608 734.074 176.524C726.595 178.433 718.68 177.205 712.093 173.113C705.226 168.84 700.791 162.368 698.895 154.428L700.628 152.71L737.739 114.85C735.088 111.984 731.491 110.181 727.615 110.036C723.775 109.883 720.037 111.317 717.244 114.013C712.401 118.698 712.823 123.547 712.83 129.672C712.859 133.168 712.84 136.664 712.774 140.16L698.174 140.147L698.151 129.36C698.149 126.973 698.095 123.878 698.322 121.534C698.964 115.307 701.528 109.451 705.641 104.812C711.237 98.5193 718.289 95.4326 726.519 95.0538ZM741.234 132.486C739.495 134.146 737.774 135.92 736.105 137.656C729.635 144.384 722.955 150.948 716.515 157.701C717.413 158.601 718.27 159.443 719.327 160.154C722.966 162.324 726.63 163.136 730.787 162.012C734.444 161.031 737.569 158.6 739.468 155.258C740.293 153.807 740.859 152.216 741.138 150.562C741.516 148.309 741.394 144.824 741.381 142.436C741.361 139.185 741.379 135.933 741.434 132.682C741.283 132.488 741.367 132.527 741.234 132.486ZM816.887 95.5962C822.294 94.497 827.899 95.0612 832.992 97.2175C838.086 99.3739 842.439 103.026 845.502 107.711C848.565 112.396 850.2 117.904 850.2 123.539H835.83C835.83 120.809 835.038 118.14 833.554 115.87C832.07 113.601 829.961 111.831 827.493 110.787C825.025 109.742 822.31 109.469 819.69 110.001C817.071 110.534 814.664 111.848 812.776 113.779C810.887 115.709 809.601 118.168 809.08 120.846C808.559 123.523 808.826 126.299 809.848 128.821C810.87 131.343 812.601 133.499 814.822 135.016C817.043 136.532 819.654 137.342 822.325 137.342V152.029C816.812 152.029 811.423 150.358 806.839 147.227C802.255 144.097 798.682 139.647 796.572 134.441C794.462 129.236 793.91 123.507 794.986 117.981C796.061 112.454 798.716 107.378 802.614 103.393C806.513 99.4088 811.48 96.6955 816.887 95.5962ZM788.347 143.918H762.235V129.015H788.347V143.918Z" fill="#0D0D0D"/>
<path opacity="0.1" d="M476.624 186.576C476.624 191.492 475.676 196.36 473.836 200.901C471.995 205.442 469.298 209.569 465.897 213.045C464.722 214.245 463.471 215.36 462.154 216.383H476.284V269.064H461.703V216.727C459.33 218.511 456.749 220.001 454.015 221.159C449.572 223.04 444.809 224.008 440 224.008V209.036C442.886 209.036 445.743 208.454 448.409 207.326C451.075 206.197 453.498 204.543 455.538 202.457C457.579 200.372 459.197 197.896 460.301 195.171C461.406 192.446 461.974 189.526 461.974 186.576H476.624ZM607.587 212.085C613.1 212.085 618.489 213.756 623.073 216.886C627.657 220.017 631.23 224.466 633.339 229.672C635.449 234.878 636.001 240.606 634.926 246.133C633.85 251.659 631.195 256.736 627.297 260.72C623.398 264.704 618.432 267.418 613.025 268.517C607.617 269.617 602.012 269.053 596.919 266.896C591.826 264.74 587.472 261.088 584.409 256.403C581.346 251.718 579.711 246.21 579.711 240.575H594.081C594.081 243.305 594.873 245.974 596.357 248.243C597.841 250.513 599.951 252.283 602.418 253.327C604.886 254.372 607.602 254.645 610.221 254.113C612.841 253.58 615.247 252.265 617.136 250.335C619.025 248.405 620.311 245.945 620.832 243.268C621.353 240.59 621.086 237.815 620.063 235.293C619.041 232.77 617.31 230.615 615.089 229.098C612.868 227.582 610.258 226.772 607.587 226.772V212.085ZM511.781 186.582C516.958 186.481 522.068 187.797 526.581 190.394C534.03 194.706 538.346 201.219 540.587 209.506C536.076 213.992 531.11 219.012 526.774 223.651L541.288 223.679C541.222 229.615 541.424 235.679 541.212 241.608C541.065 245.759 539.309 250.85 537.239 254.398C533.301 261.217 526.852 266.136 519.335 268.052C511.857 269.961 503.942 268.733 497.354 264.641C490.487 260.369 486.052 253.896 484.157 245.956L485.889 244.238L523 206.379C520.349 203.512 516.752 201.709 512.876 201.564C509.037 201.411 505.299 202.845 502.505 205.542C497.662 210.226 498.085 215.075 498.091 221.2C498.12 224.696 498.101 228.192 498.035 231.688L483.435 231.675L483.412 220.888C483.411 218.501 483.357 215.406 483.583 213.062C484.226 206.835 486.789 200.979 490.903 196.34C496.499 190.047 503.55 186.961 511.781 186.582ZM526.495 224.014C524.757 225.674 523.035 227.448 521.366 229.184C514.896 235.912 508.217 242.476 501.776 249.229C502.674 250.129 503.532 250.972 504.589 251.682C508.227 253.852 511.892 254.664 516.048 253.54C519.706 252.559 522.83 250.129 524.73 246.786C525.555 245.335 526.12 243.744 526.4 242.09C526.778 239.837 526.655 236.352 526.643 233.964C526.622 230.713 526.64 227.461 526.695 224.21C526.544 224.016 526.628 224.055 526.495 224.014ZM602.148 187.124C607.555 186.025 613.16 186.589 618.254 188.746C623.347 190.902 627.701 194.554 630.763 199.239C633.826 203.924 635.461 209.432 635.461 215.067H621.092C621.092 212.337 620.299 209.668 618.815 207.398C617.331 205.129 615.222 203.359 612.755 202.315C610.287 201.27 607.572 200.997 604.952 201.529C602.332 202.062 599.926 203.376 598.037 205.307C596.148 207.237 594.862 209.697 594.341 212.374C593.82 215.052 594.087 217.827 595.109 220.349C596.131 222.871 597.862 225.027 600.083 226.544C602.304 228.06 604.916 228.87 607.587 228.87V243.557C602.074 243.557 596.684 241.886 592.1 238.756C587.516 235.625 583.943 231.175 581.833 225.97C579.724 220.764 579.172 215.035 580.247 209.509C581.323 203.982 583.978 198.906 587.876 194.921C591.774 190.937 596.741 188.224 602.148 187.124ZM573.608 235.446H547.497V220.543H573.608V235.446Z" fill="#0D0D0D"/>
<path opacity="0.1" d="M691.362 377C691.362 381.916 690.415 386.783 688.575 391.325C686.734 395.866 684.036 399.993 680.636 403.468C679.461 404.669 678.21 405.784 676.892 406.806H691.023V459.488H676.442V407.15C674.069 408.935 671.488 410.425 668.754 411.582C664.311 413.463 659.548 414.432 654.739 414.432V399.459C657.625 399.459 660.482 398.878 663.148 397.749C665.814 396.621 668.237 394.967 670.277 392.881C672.317 390.796 673.936 388.319 675.04 385.595C676.144 382.87 676.713 379.949 676.713 377H691.362ZM822.325 402.509C827.838 402.509 833.227 404.18 837.812 407.31C842.396 410.44 845.969 414.89 848.078 420.096C850.188 425.302 850.74 431.03 849.665 436.556C848.589 442.083 845.934 447.16 842.035 451.144C838.137 455.128 833.171 457.841 827.764 458.941C822.356 460.04 816.751 459.476 811.658 457.32C806.564 455.163 802.211 451.512 799.148 446.826C796.085 442.141 794.45 436.633 794.45 430.998H808.82C808.82 433.728 809.612 436.397 811.096 438.667C812.58 440.937 814.689 442.706 817.157 443.751C819.624 444.795 822.34 445.069 824.96 444.536C827.58 444.003 829.986 442.689 831.875 440.759C833.763 438.828 835.05 436.369 835.571 433.691C836.092 431.014 835.824 428.238 834.802 425.716C833.78 423.194 832.049 421.038 829.828 419.522C827.607 418.005 824.996 417.196 822.325 417.196V402.509ZM726.519 377.006C731.697 376.905 736.807 378.221 741.32 380.818C748.769 385.13 753.085 391.643 755.326 399.93C750.815 404.415 745.849 409.436 741.513 414.074L756.027 414.103C755.961 420.038 756.162 426.103 755.951 432.031C755.803 436.182 754.048 441.273 751.978 444.822C748.04 451.641 741.59 456.56 734.074 458.475C726.595 460.384 718.68 459.156 712.093 455.064C705.226 450.792 700.791 444.319 698.896 436.38L700.628 434.662L737.739 396.802C735.088 393.936 731.491 392.133 727.615 391.988C723.775 391.835 720.038 393.268 717.244 395.965C712.401 400.65 712.823 405.498 712.83 411.624C712.859 415.12 712.84 418.616 712.774 422.111L698.174 422.098L698.151 411.312C698.15 408.925 698.096 405.829 698.322 403.486C698.965 397.259 701.528 391.402 705.641 386.763C711.237 380.471 718.289 377.384 726.519 377.006ZM741.234 414.438C739.495 416.098 737.774 417.872 736.105 419.608C729.635 426.336 722.955 432.9 716.515 439.653C717.413 440.553 718.271 441.395 719.327 442.105C722.966 444.275 726.63 445.088 730.787 443.964C734.445 442.983 737.569 440.552 739.469 437.21C740.293 435.758 740.859 434.168 741.138 432.514C741.517 430.261 741.394 426.776 741.381 424.388C741.361 421.136 741.379 417.885 741.434 414.633C741.283 414.439 741.367 414.479 741.234 414.438ZM816.887 377.548C822.294 376.449 827.899 377.013 832.993 379.169C838.086 381.326 842.439 384.977 845.502 389.662C848.565 394.348 850.2 399.856 850.2 405.49H835.83C835.83 402.76 835.038 400.092 833.554 397.822C832.07 395.552 829.961 393.783 827.493 392.738C825.026 391.694 822.31 391.42 819.691 391.953C817.071 392.485 814.665 393.8 812.776 395.73C810.887 397.661 809.601 400.12 809.08 402.798C808.559 405.475 808.826 408.25 809.848 410.772C810.87 413.295 812.601 415.451 814.822 416.967C817.043 418.484 819.654 419.294 822.325 419.294V433.981C816.812 433.981 811.423 432.309 806.839 429.179C802.255 426.048 798.682 421.599 796.572 416.393C794.462 411.187 793.91 405.459 794.986 399.932C796.062 394.406 798.716 389.329 802.615 385.345C806.513 381.36 811.48 378.647 816.887 377.548ZM788.347 425.87H762.235V410.966H788.347V425.87Z" fill="#0D0D0D"/>
<path opacity="0.1" d="M476.624 377C476.624 381.916 475.676 386.783 473.836 391.325C471.995 395.866 469.298 399.993 465.897 403.468C464.722 404.669 463.471 405.784 462.154 406.806H476.284V459.488H461.703V407.15C459.33 408.935 456.749 410.425 454.015 411.582C449.572 413.463 444.809 414.432 440 414.432V399.459C442.886 399.459 445.743 398.878 448.409 397.749C451.075 396.621 453.498 394.967 455.538 392.881C457.579 390.796 459.197 388.319 460.301 385.595C461.406 382.87 461.974 379.949 461.974 377H476.624ZM607.587 402.509C613.1 402.509 618.489 404.18 623.073 407.31C627.657 410.44 631.23 414.89 633.339 420.096C635.449 425.302 636.001 431.03 634.926 436.556C633.85 442.083 631.195 447.16 627.297 451.144C623.398 455.128 618.432 457.841 613.025 458.941C607.617 460.04 602.012 459.476 596.919 457.32C591.826 455.163 587.472 451.512 584.409 446.826C581.346 442.141 579.711 436.633 579.711 430.998H594.081C594.081 433.728 594.873 436.397 596.357 438.667C597.841 440.937 599.951 442.706 602.418 443.751C604.886 444.795 607.602 445.069 610.221 444.536C612.841 444.003 615.247 442.689 617.136 440.759C619.025 438.828 620.311 436.369 620.832 433.691C621.353 431.014 621.086 428.238 620.063 425.716C619.041 423.194 617.31 421.038 615.089 419.522C612.868 418.005 610.258 417.196 607.587 417.196V402.509ZM511.781 377.006C516.958 376.905 522.068 378.221 526.581 380.818C534.03 385.13 538.346 391.643 540.587 399.93C536.076 404.415 531.11 409.436 526.774 414.074L541.288 414.103C541.222 420.038 541.424 426.103 541.212 432.031C541.065 436.182 539.309 441.273 537.239 444.822C533.301 451.641 526.852 456.56 519.335 458.475C511.857 460.384 503.942 459.156 497.354 455.064C490.487 450.792 486.052 444.319 484.157 436.38L485.889 434.662L523 396.802C520.349 393.936 516.752 392.133 512.876 391.988C509.037 391.835 505.299 393.268 502.505 395.965C497.662 400.65 498.085 405.498 498.091 411.624C498.12 415.12 498.101 418.616 498.035 422.111L483.435 422.098L483.412 411.312C483.411 408.925 483.357 405.829 483.583 403.486C484.226 397.259 486.789 391.402 490.903 386.763C496.499 380.471 503.55 377.384 511.781 377.006ZM526.495 414.438C524.757 416.098 523.035 417.872 521.366 419.608C514.896 426.336 508.217 432.9 501.776 439.653C502.674 440.553 503.532 441.395 504.589 442.105C508.227 444.275 511.892 445.088 516.048 443.964C519.706 442.983 522.83 440.552 524.73 437.21C525.555 435.758 526.12 434.168 526.4 432.514C526.778 430.261 526.655 426.776 526.643 424.388C526.622 421.136 526.64 417.885 526.695 414.633C526.544 414.439 526.628 414.479 526.495 414.438ZM602.148 377.548C607.555 376.449 613.16 377.013 618.254 379.169C623.347 381.326 627.701 384.977 630.763 389.662C633.826 394.348 635.461 399.856 635.461 405.49H621.092C621.092 402.76 620.299 400.092 618.815 397.822C617.331 395.552 615.222 393.783 612.755 392.738C610.287 391.694 607.572 391.42 604.952 391.953C602.332 392.485 599.926 393.8 598.037 395.73C596.148 397.661 594.862 400.12 594.341 402.798C593.82 405.475 594.087 408.25 595.109 410.772C596.131 413.295 597.862 415.451 600.083 416.967C602.304 418.484 604.916 419.294 607.587 419.294V433.981C602.074 433.981 596.684 432.309 592.1 429.179C587.516 426.048 583.943 421.599 581.833 416.393C579.724 411.187 579.172 405.459 580.247 399.932C581.323 394.406 583.978 389.329 587.876 385.345C591.774 381.36 596.741 378.647 602.148 377.548ZM573.608 425.87H547.497V410.966H573.608V425.87Z" fill="#0D0D0D"/>
<path opacity="0.1" d="M476.624 281.512C476.624 286.427 475.676 291.295 473.836 295.836C471.995 300.378 469.298 304.504 465.897 307.98C464.722 309.181 463.471 310.295 462.154 311.318H476.284V364H461.703V311.662C459.33 313.446 456.749 314.936 454.015 316.094C449.572 317.975 444.809 318.943 440 318.943V303.971C442.886 303.971 445.743 303.39 448.409 302.261C451.075 301.132 453.498 299.478 455.538 297.393C457.579 295.307 459.197 292.831 460.301 290.106C461.406 287.382 461.974 284.461 461.974 281.512H476.624ZM607.587 307.02C613.1 307.02 618.489 308.691 623.073 311.822C627.657 314.952 631.23 319.402 633.339 324.608C635.449 329.813 636.001 335.542 634.926 341.068C633.85 346.594 631.195 351.671 627.297 355.655C623.398 359.64 618.432 362.353 613.025 363.452C607.617 364.552 602.012 363.988 596.919 361.832C591.826 359.675 587.472 356.024 584.409 351.338C581.346 346.653 579.711 341.145 579.711 335.51H594.081C594.081 338.24 594.873 340.909 596.357 343.178C597.841 345.448 599.951 347.218 602.418 348.262C604.886 349.307 607.602 349.581 610.221 349.048C612.841 348.515 615.247 347.201 617.136 345.27C619.025 343.34 620.311 340.881 620.832 338.203C621.353 335.525 621.086 332.75 620.063 330.228C619.041 327.706 617.31 325.55 615.089 324.033C612.868 322.517 610.258 321.707 607.587 321.707V307.02ZM511.781 281.517C516.958 281.417 522.068 282.733 526.581 285.33C534.03 289.642 538.346 296.155 540.587 304.441C536.076 308.927 531.11 313.947 526.774 318.586L541.288 318.614C541.222 324.55 541.424 330.615 541.212 336.543C541.065 340.694 539.309 345.785 537.239 349.334C533.301 356.152 526.852 361.072 519.335 362.987C511.857 364.896 503.942 363.668 497.354 359.576C490.487 355.304 486.052 348.831 484.157 340.892L485.889 339.173L523 301.314C520.349 298.447 516.752 296.644 512.876 296.5C509.037 296.347 505.299 297.78 502.505 300.477C497.662 305.162 498.085 310.01 498.091 316.135C498.12 319.631 498.101 323.127 498.035 326.623L483.435 326.61L483.412 315.824C483.411 313.436 483.357 310.341 483.583 307.997C484.226 301.771 486.789 295.914 490.903 291.275C496.499 284.983 503.55 281.896 511.781 281.517ZM526.495 318.95C524.757 320.609 523.035 322.384 521.366 324.119C514.896 330.847 508.217 337.411 501.776 344.164C502.674 345.064 503.532 345.907 504.589 346.617C508.227 348.787 511.892 349.599 516.048 348.475C519.706 347.495 522.83 345.064 524.73 341.721C525.555 340.27 526.12 338.68 526.4 337.025C526.778 334.772 526.655 331.288 526.643 328.9C526.622 325.648 526.64 322.396 526.695 319.145C526.544 318.951 526.628 318.99 526.495 318.95ZM602.148 282.06C607.555 280.96 613.16 281.525 618.254 283.681C623.347 285.837 627.701 289.489 630.763 294.174C633.826 298.859 635.461 304.367 635.461 310.002H621.092C621.092 307.272 620.299 304.604 618.815 302.334C617.331 300.064 615.222 298.295 612.755 297.25C610.287 296.205 607.572 295.932 604.952 296.465C602.332 296.997 599.926 298.312 598.037 300.242C596.148 302.172 594.862 304.632 594.341 307.309C593.82 309.987 594.087 312.762 595.109 315.284C596.131 317.806 597.862 319.962 600.083 321.479C602.304 322.996 604.916 323.805 607.587 323.805V338.492C602.074 338.492 596.684 336.821 592.1 333.691C587.516 330.56 583.943 326.111 581.833 320.905C579.724 315.699 579.172 309.971 580.247 304.444C581.323 298.918 583.978 293.841 587.876 289.857C591.774 285.872 596.741 283.159 602.148 282.06ZM573.608 330.381H547.497V315.478H573.608V330.381Z" fill="#0D0D0D"/>
<path opacity="0.1" d="M476.623 0C476.623 4.91556 475.676 9.78326 473.836 14.3246C471.995 18.866 469.298 22.9925 465.897 26.4683C464.722 27.6691 463.471 28.7837 462.154 29.8065H476.284V82.4879H461.703V30.1503C459.33 31.9347 456.749 33.4247 454.015 34.5823C449.572 36.4634 444.809 37.4316 440 37.4316V22.4591C442.886 22.4591 445.743 21.878 448.409 20.7493C451.075 19.6206 453.498 17.9666 455.538 15.8811C457.579 13.7956 459.197 11.3195 460.301 8.59465C461.406 5.86984 461.974 2.9493 461.974 0H476.623ZM607.587 25.5086C613.1 25.5086 618.489 27.1795 623.073 30.3099C627.657 33.4405 631.23 37.8901 633.339 43.0959C635.449 48.3017 636.001 54.0299 634.926 59.5563C633.85 65.0827 631.195 70.1596 627.296 74.1438C623.398 78.128 618.432 80.8414 613.025 81.9406C607.617 83.0401 602.012 82.4762 596.919 80.3198C591.826 78.1634 587.472 74.5119 584.409 69.8265C581.346 65.1415 579.711 59.6332 579.711 53.9985H594.081C594.081 56.7284 594.873 59.3972 596.357 61.6668C597.841 63.9368 599.951 65.7061 602.418 66.7505C604.886 67.7953 607.601 68.0688 610.221 67.5363C612.841 67.0035 615.247 65.6888 617.136 63.7588C619.024 61.8283 620.311 59.369 620.832 56.6914C621.353 54.0138 621.086 51.2383 620.063 48.7161C619.041 46.194 617.31 44.0384 615.089 42.5215C612.868 41.0051 610.258 40.1955 607.587 40.1955V25.5086ZM511.78 0.00550662C516.958 -0.095213 522.068 1.22108 526.581 3.81805C534.03 8.12994 538.346 14.6431 540.587 22.9295C536.076 27.4152 531.11 32.4358 526.774 37.0744L541.288 37.1027C541.222 43.0383 541.423 49.1028 541.212 55.0312C541.064 59.1821 539.309 64.2735 537.239 67.8219C533.301 74.6408 526.851 79.5598 519.335 81.4754C511.857 83.3845 503.942 82.1564 497.354 78.0643C490.487 73.7921 486.052 67.3192 484.157 59.3799L485.889 57.6616L523 19.8021C520.349 16.9357 516.752 15.1327 512.876 14.9878C509.037 14.8348 505.299 16.2683 502.505 18.9652C497.662 23.6501 498.085 28.4983 498.091 34.6236C498.12 38.1195 498.101 41.6157 498.035 45.1114L483.435 45.0985L483.412 34.3121C483.411 31.9248 483.357 28.8293 483.583 26.4856C484.226 20.259 486.789 14.4023 490.902 9.7632C496.499 3.47096 503.55 0.38425 511.78 0.00550662ZM526.495 37.4379C524.757 39.0976 523.035 40.8718 521.366 42.6077C514.896 49.3356 508.216 55.8995 501.776 62.6528C502.674 63.5525 503.532 64.3951 504.589 65.1052C508.227 67.2753 511.892 68.0877 516.048 66.9636C519.706 65.9828 522.83 63.5521 524.73 60.2096C525.555 58.7584 526.12 57.1678 526.399 55.5137C526.778 53.2606 526.655 49.7758 526.643 47.3878C526.622 44.1362 526.64 40.8847 526.695 37.6333C526.544 37.4394 526.628 37.4786 526.495 37.4379ZM602.148 0.547907C607.555 -0.551375 613.16 0.0128829 618.254 2.16921C623.347 4.32554 627.7 7.97737 630.763 12.6625C633.826 17.3476 635.461 22.8557 635.461 28.4904H621.091C621.091 25.7605 620.299 23.0919 618.815 20.8221C617.331 18.5522 615.222 16.783 612.754 15.7383C610.287 14.6936 607.572 14.4202 604.952 14.9528C602.332 15.4854 599.926 16.8 598.037 18.7303C596.148 20.6607 594.862 23.1202 594.341 25.7977C593.82 28.4751 594.087 31.2503 595.109 33.7724C596.131 36.2946 597.862 38.4507 600.083 39.9673C602.304 41.484 604.915 42.2936 607.587 42.2936V56.9806C602.073 56.9806 596.684 55.3095 592.1 52.1791C587.516 49.0484 583.943 44.599 581.833 39.3931C579.724 34.1872 579.171 28.4588 580.247 22.9323C581.323 17.4058 583.978 12.3292 587.876 8.34489C591.774 4.3605 596.741 1.64719 602.148 0.547907ZM573.608 48.8696H547.497V33.9663H573.608V48.8696Z" fill="#0D0D0D"/>
<path opacity="0.1" d="M476.624 95.0483C476.624 99.9639 475.676 104.832 473.836 109.373C471.995 113.914 469.298 118.041 465.897 121.517C464.722 122.717 463.471 123.832 462.154 124.855H476.284V177.536H461.703V125.199C459.33 126.983 456.749 128.473 454.015 129.631C449.572 131.512 444.809 132.48 440 132.48V117.507C442.886 117.507 445.743 116.926 448.409 115.798C451.075 114.669 453.498 113.015 455.538 110.929C457.579 108.844 459.197 106.368 460.301 103.643C461.406 100.918 461.974 97.9976 461.974 95.0483H476.624ZM607.587 120.557C613.1 120.557 618.489 122.228 623.073 125.358C627.657 128.489 631.23 132.938 633.339 138.144C635.449 143.35 636.001 149.078 634.926 154.605C633.85 160.131 631.195 165.208 627.297 169.192C623.398 173.176 618.432 175.89 613.025 176.989C607.617 178.088 602.012 177.525 596.919 175.368C591.826 173.212 587.472 169.56 584.409 164.875C581.346 160.19 579.711 154.682 579.711 149.047H594.081C594.081 151.777 594.873 154.446 596.357 156.715C597.841 158.985 599.951 160.754 602.418 161.799C604.886 162.844 607.602 163.117 610.221 162.585C612.841 162.052 615.247 160.737 617.136 158.807C619.025 156.877 620.311 154.417 620.832 151.74C621.353 149.062 621.086 146.287 620.063 143.764C619.041 141.242 617.31 139.087 615.089 137.57C612.868 136.053 610.258 135.244 607.587 135.244V120.557ZM511.781 95.0538C516.958 94.9531 522.068 96.2694 526.581 98.8664C534.03 103.178 538.346 109.691 540.587 117.978C536.076 122.464 531.11 127.484 526.774 132.123L541.288 132.151C541.222 138.087 541.424 144.151 541.212 150.079C541.065 154.23 539.309 159.322 537.239 162.87C533.301 169.689 526.852 174.608 519.335 176.524C511.857 178.433 503.942 177.205 497.354 173.113C490.487 168.84 486.052 162.368 484.157 154.428L485.889 152.71L523 114.85C520.349 111.984 516.752 110.181 512.876 110.036C509.037 109.883 505.299 111.317 502.505 114.013C497.662 118.698 498.085 123.547 498.091 129.672C498.12 133.168 498.101 136.664 498.035 140.16L483.435 140.147L483.412 129.36C483.411 126.973 483.357 123.878 483.583 121.534C484.226 115.307 486.789 109.451 490.903 104.812C496.499 98.5193 503.55 95.4326 511.781 95.0538ZM526.495 132.486C524.757 134.146 523.035 135.92 521.366 137.656C514.896 144.384 508.217 150.948 501.776 157.701C502.674 158.601 503.532 159.443 504.589 160.154C508.227 162.324 511.892 163.136 516.048 162.012C519.706 161.031 522.83 158.6 524.73 155.258C525.555 153.807 526.12 152.216 526.4 150.562C526.778 148.309 526.655 144.824 526.643 142.436C526.622 139.185 526.64 135.933 526.695 132.682C526.544 132.488 526.628 132.527 526.495 132.486ZM602.148 95.5962C607.555 94.497 613.16 95.0612 618.254 97.2175C623.347 99.3739 627.701 103.026 630.763 107.711C633.826 112.396 635.461 117.904 635.461 123.539H621.092C621.092 120.809 620.299 118.14 618.815 115.87C617.331 113.601 615.222 111.831 612.755 110.787C610.287 109.742 607.572 109.469 604.952 110.001C602.332 110.534 599.926 111.848 598.037 113.779C596.148 115.709 594.862 118.168 594.341 120.846C593.82 123.523 594.087 126.299 595.109 128.821C596.131 131.343 597.862 133.499 600.083 135.016C602.304 136.532 604.916 137.342 607.587 137.342V152.029C602.074 152.029 596.684 150.358 592.1 147.227C587.516 144.097 583.943 139.647 581.833 134.441C579.724 129.236 579.172 123.507 580.247 117.981C581.323 112.454 583.978 107.378 587.876 103.393C591.774 99.4088 596.741 96.6955 602.148 95.5962ZM573.608 143.918H547.497V129.015H573.608V143.918Z" fill="#0D0D0D"/>
</g>
</svg>
