<svg width="69" height="93" viewBox="0 0 69 93" fill="none" xmlns="http://www.w3.org/2000/svg">
<path opacity="0.1" d="M-1.09673e-05 92.928C-1.09673e-05 85.1626 1.02399 78.4213 3.07199 72.704C5.20532 66.9866 8.61866 61.8666 13.312 57.344C18.0907 52.8213 24.4053 48.512 32.256 44.416C36.4373 42.2826 39.7227 40.4053 42.112 38.784C44.5867 37.0773 46.336 35.3706 47.36 33.664C48.384 31.9573 48.896 29.952 48.896 27.648C48.896 25.4293 48.384 23.5093 47.36 21.888C46.4213 20.1813 45.0133 18.8586 43.136 17.92C41.2587 16.896 38.912 16.384 36.096 16.384C31.488 16.384 27.8187 17.7493 25.088 20.48C22.4427 23.1253 20.7787 27.008 20.096 32.128L0.127989 30.976C0.981323 21.3333 4.47999 13.7813 10.624 8.31998C16.8533 2.77331 25.2587 -2.28882e-05 35.84 -2.28882e-05C42.8373 -2.28882e-05 48.768 1.15197 53.632 3.45597C58.5813 5.75997 62.336 8.95997 64.896 13.056C67.5413 17.152 68.864 21.9306 68.864 27.392C68.864 32.1706 68.0533 36.1813 66.432 39.424C64.896 42.6666 62.3787 45.6533 58.88 48.384C55.3813 51.1146 50.7733 54.016 45.056 57.088C37.7173 61.0133 32.2987 64.64 28.8 67.968C25.3013 71.2106 23.424 74.0693 23.168 76.544H68.864V92.928H-1.09673e-05Z" fill="url(#paint0_linear_1092_1566)"/>
<defs>
<linearGradient id="paint0_linear_1092_1566" x1="-7.61151" y1="47.928" x2="76.3885" y2="47.928" gradientUnits="userSpaceOnUse">
<stop stop-color="#CBFF00"/>
<stop offset="1" stop-color="#07F499"/>
</linearGradient>
</defs>
</svg>
