<svg width="72" height="95" viewBox="0 0 72 95" fill="none" xmlns="http://www.w3.org/2000/svg">
<path opacity="0.1" d="M35.84 94.976C24.576 94.976 15.872 92.416 9.72804 87.296C3.66938 82.0906 0.426709 75.0933 4.24385e-05 66.304L19.84 65.536C20.2667 70.0586 21.8454 73.3866 24.576 75.52C27.392 77.568 31.1467 78.592 35.84 78.592C38.912 78.592 41.6427 78.1653 44.032 77.312C46.4214 76.3733 48.2987 74.9653 49.664 73.088C51.1147 71.2106 51.84 68.864 51.84 66.048C51.84 61.696 50.3467 58.4533 47.36 56.32C44.3734 54.1013 40.32 52.992 35.2 52.992H27.136V38.528H35.2C39.1254 38.528 42.368 37.7173 44.928 36.096C47.5734 34.3893 48.896 31.5306 48.896 27.52C48.896 24.1066 47.8294 21.4186 45.696 19.456C43.5627 17.408 40.192 16.384 35.584 16.384C30.976 16.384 27.52 17.3226 25.216 19.2C22.912 21.0773 21.504 23.5093 20.992 26.496L1.40804 25.472C2.26138 17.792 5.63204 11.648 11.52 7.03998C17.4934 2.34664 25.5147 -2.28882e-05 35.584 -2.28882e-05C42.752 -2.28882e-05 48.8107 1.02398 53.76 3.07198C58.7094 5.11997 62.464 8.06398 65.024 11.904C67.584 15.744 68.864 20.2666 68.864 25.472C68.864 30.848 67.072 35.2853 63.488 38.784C59.9894 42.2826 54.912 44.672 48.256 45.952V43.776C55.8507 44.8853 61.696 47.488 65.792 51.584C69.888 55.68 71.936 60.9706 71.936 67.456C71.936 73.1733 70.4427 78.1226 67.456 82.304C64.4694 86.4 60.288 89.5573 54.912 91.776C49.536 93.9093 43.1787 94.976 35.84 94.976Z" fill="url(#paint0_linear_1092_1579)"/>
<defs>
<linearGradient id="paint0_linear_1092_1579" x1="-6.00696" y1="47.928" x2="77.993" y2="47.928" gradientUnits="userSpaceOnUse">
<stop stop-color="#CBFF00"/>
<stop offset="1" stop-color="#07F499"/>
</linearGradient>
</defs>
</svg>
