<svg width="72" height="93" viewBox="0 0 72 93" fill="none" xmlns="http://www.w3.org/2000/svg">
<path opacity="0.1" d="M35.584 92.928C28.16 92.928 21.888 91.8187 16.768 89.6C11.648 87.3813 7.67997 84.224 4.86397 80.128C2.04797 76.032 0.426637 71.2533 -2.95639e-05 65.792L19.712 64.896C20.48 68.8213 22.1866 71.7653 24.832 73.728C27.5626 75.6053 31.1466 76.544 35.584 76.544C40.5333 76.544 44.416 75.136 47.232 72.32C50.1333 69.504 51.584 65.6213 51.584 60.672C51.584 57.4293 50.9013 54.6133 49.536 52.224C48.256 49.8347 46.4213 47.9573 44.032 46.592C41.6426 45.2267 38.784 44.544 35.456 44.544C31.7866 44.544 28.6293 45.3547 25.984 46.976C23.3386 48.5973 21.504 50.6453 20.48 53.12H1.02397L7.29597 0H65.28V16.384H23.808L20.48 42.88L18.304 40.96C19.7546 38.7413 21.5466 36.864 23.68 35.328C25.8986 33.7067 28.4586 32.4693 31.36 31.616C34.2613 30.6773 37.4613 30.208 40.96 30.208C47.2746 30.208 52.6933 31.5307 57.216 34.176C61.824 36.8213 65.3653 40.448 67.84 45.056C70.3146 49.664 71.552 54.8693 71.552 60.672C71.552 67.2427 70.0586 72.96 67.072 77.824C64.0853 82.688 59.904 86.4427 54.528 89.088C49.152 91.648 42.8373 92.928 35.584 92.928Z" fill="url(#paint0_linear_1092_1606)"/>
<defs>
<linearGradient id="paint0_linear_1092_1606" x1="-7.23053" y1="45.88" x2="78.7695" y2="45.88" gradientUnits="userSpaceOnUse">
<stop stop-color="#CBFF00"/>
<stop offset="1" stop-color="#07F499"/>
</linearGradient>
</defs>
</svg>
