<svg width="71" height="95" viewBox="0 0 71 95" fill="none" xmlns="http://www.w3.org/2000/svg">
<path opacity="0.1" d="M35.328 94.976C27.5627 94.976 21.0347 93.312 15.744 89.984C10.5387 86.656 6.61337 81.8773 3.96803 75.648C1.3227 69.3333 3.14713e-05 61.7386 3.14713e-05 52.864C3.14713e-05 45.2693 0.768031 38.272 2.30403 31.872C3.84003 25.3866 6.14403 19.7973 9.21603 15.104C12.3734 10.3253 16.384 6.61331 21.248 3.96797C26.112 1.32264 31.8294 -2.28882e-05 38.4 -2.28882e-05C47.2747 -2.28882e-05 54.272 2.13331 59.392 6.39997C64.5974 10.6666 68.0534 16.4693 69.76 23.808L51.712 25.088C50.688 22.272 49.1947 20.0533 47.232 18.432C45.2694 16.8106 42.3254 16 38.4 16C32.4267 16 27.7334 18.6026 24.32 23.808C20.9067 29.0133 18.9867 37.0346 18.56 47.872L15.872 47.36C16.8107 44.8853 18.304 42.5813 20.352 40.448C22.4 38.3146 25.0027 36.608 28.16 35.328C31.4027 33.9626 35.1574 33.28 39.424 33.28C45.568 33.28 50.944 34.5173 55.552 36.992C60.2454 39.4666 63.8294 42.9226 66.304 47.36C68.864 51.7973 70.144 57.0026 70.144 62.976C70.144 69.8026 68.6934 75.6053 65.792 80.384C62.8907 85.0773 58.8374 88.704 53.632 91.264C48.4267 93.7386 42.3254 94.976 35.328 94.976ZM35.2 79.488C39.8934 79.488 43.648 78.0373 46.464 75.136C49.3654 72.1493 50.816 68.1813 50.816 63.232C50.816 59.9893 50.176 57.1733 48.896 54.784C47.7014 52.3946 45.952 50.5173 43.648 49.152C41.4294 47.7866 38.8267 47.104 35.84 47.104C32.6827 47.104 29.8667 47.7866 27.392 49.152C24.9174 50.5173 22.9974 52.3946 21.632 54.784C20.2667 57.1733 19.584 59.9893 19.584 63.232C19.584 66.3893 20.224 69.2053 21.504 71.68C22.784 74.1546 24.576 76.0746 26.88 77.44C29.2694 78.8053 32.0427 79.488 35.2 79.488Z" fill="url(#paint0_linear_1092_1619)"/>
<defs>
<linearGradient id="paint0_linear_1092_1619" x1="-7.35547" y1="47.928" x2="77.6445" y2="47.928" gradientUnits="userSpaceOnUse">
<stop stop-color="#CBFF00"/>
<stop offset="1" stop-color="#07F499"/>
</linearGradient>
</defs>
</svg>
