<svg width="23" height="28" viewBox="0 0 23 28" fill="none" xmlns="http://www.w3.org/2000/svg">
<path fill-rule="evenodd" clip-rule="evenodd" d="M15.2444 4.54561C16.1226 3.36681 16.7882 1.7007 16.5474 0C15.1121 0.103722 13.4345 1.05863 12.4557 2.30328C11.5633 3.43104 10.8299 5.10869 11.1163 6.73695C12.6854 6.78799 14.3048 5.81002 15.2444 4.54561ZM23 20.5433C22.3721 21.9987 22.0699 22.6491 21.2609 23.9382C20.1325 25.7376 18.5414 27.9784 16.568 27.9948C14.8163 28.0146 14.3647 26.8012 11.9866 26.816C9.6086 26.8292 9.11287 28.0179 7.35811 27.9998C5.38615 27.9817 3.87846 25.9599 2.75005 24.1604C-0.406976 19.1324 -0.739046 13.2302 1.20773 10.0905C2.59267 7.8614 4.77709 6.55747 6.82931 6.55747C8.91772 6.55747 10.2318 7.75604 11.9614 7.75604C13.6391 7.75604 14.6605 6.5542 17.0763 6.5542C18.905 6.5542 20.8423 7.59634 22.221 9.39421C17.7011 11.9856 18.4328 18.7373 23 20.5433Z" fill="#F5F5F5" fill-opacity="0.85"/>
</svg>
