<svg width="20" height="23" viewBox="0 0 20 23" fill="none" xmlns="http://www.w3.org/2000/svg">
<path fill-rule="evenodd" clip-rule="evenodd" d="M19.3844 12.3134C19.2255 12.4072 17.63 13.3481 15.4552 14.6305L12.6183 11.569L15.5937 8.35812C16.4161 8.84143 17.1525 9.27415 17.7554 9.62843L17.7778 9.6416L17.8303 9.67245L17.8373 9.67657C18.6542 10.1566 19.2117 10.4842 19.3844 10.5858C20.4573 11.216 19.9084 12.0044 19.3844 12.3134ZM14.9249 7.96506C14.8658 7.93032 14.8063 7.89542 14.7465 7.86029L11.9722 10.8719L12.1018 11.0116L14.9249 7.96506ZM11.5852 11.569L11.4573 11.4309L11.4263 11.4645L11.5542 11.6025L11.5852 11.569ZM11.5542 11.6025L11.4263 11.4645L0.79867 0.0135763C0.359725 0.119057 0 0.528326 0 1.35096V21.6184C0 22.3931 0.282983 22.938 0.806277 22.9923C0.866116 23.0005 0.929131 23.0022 0.994939 22.9974L11.5542 11.6025ZM2.94701 22.0056L12.0708 12.1599L14.7489 15.0462L2.94701 22.0056ZM12.0708 12.1599L12.1018 12.1264L14.7872 15.0244L14.7489 15.0462L12.0708 12.1599ZM14.7465 7.86029L11.9722 10.8719L2.52538 0.677477L14.7465 7.86029ZM11.4573 11.4309L0.864546 0C0.842485 0.00365303 0.820316 0.00838388 0.79867 0.0135763L11.4263 11.4645L11.4573 11.4309Z" fill="#F5F5F5" fill-opacity="0.85"/>
</svg>
