<svg width="59" height="25" viewBox="0 0 59 25" fill="none" xmlns="http://www.w3.org/2000/svg">
<path d="M11.0548 0C11.0548 1.48977 10.7689 2.96505 10.2133 4.34142C9.65775 5.71778 8.84348 6.96842 7.81697 8.02184C7.46235 8.38576 7.08467 8.72358 6.68705 9.03355H10.9525V24.9999H6.55103V9.13774C5.8347 9.67856 5.05581 10.1301 4.23044 10.481C2.88922 11.0511 1.45173 11.3445 0 11.3445V6.80675C0.871044 6.80675 1.73355 6.63063 2.53829 6.28856C3.34302 5.94649 4.07429 5.44519 4.69021 4.81313C5.30612 4.18107 5.79464 3.43063 6.12796 2.60481C6.46128 1.77899 6.63292 0.893855 6.63292 0H11.0548ZM50.586 7.73097C52.2501 7.73097 53.8768 8.23738 55.2605 9.18614C56.6442 10.1349 57.7227 11.4835 58.3595 13.0612C58.9963 14.639 59.163 16.375 58.8384 18.0499C58.5136 19.7248 57.7122 21.2635 56.5355 22.471C55.3588 23.6785 53.8597 24.5009 52.2275 24.834C50.5953 25.1672 48.9034 24.9964 47.366 24.3428C45.8285 23.6892 44.5145 22.5826 43.5899 21.1625C42.6654 19.7426 42.1719 18.0732 42.1719 16.3655H46.5094C46.5094 17.1929 46.7485 18.0017 47.1965 18.6896C47.6443 19.3775 48.2811 19.9138 49.0258 20.2303C49.7707 20.547 50.5905 20.6298 51.3812 20.4685C52.172 20.307 52.8983 19.9085 53.4684 19.3236C54.0386 18.7385 54.4268 17.9932 54.5841 17.1816C54.7413 16.3701 54.6607 15.529 54.3521 14.7646C54.0436 14.0002 53.521 13.3469 52.8507 12.8871C52.1803 12.4276 51.3923 12.1822 50.586 12.1822V7.73097ZM21.6669 0.00166891C23.2298 -0.0288565 24.7723 0.370078 26.1345 1.15715C28.383 2.46397 29.6857 4.43793 30.3622 6.94933C29.0005 8.30881 27.5015 9.83042 26.1927 11.2363L30.5739 11.2449C30.5539 13.0438 30.6147 14.8818 30.5509 16.6785C30.5063 17.9365 29.9764 19.4796 29.3515 20.555C28.163 22.6216 26.2161 24.1125 23.9474 24.693C21.6899 25.2716 19.3008 24.8994 17.3123 23.6592C15.2395 22.3644 13.9007 20.4027 13.3287 17.9965L13.8515 17.4757L25.0535 6.0015C24.2533 5.13277 23.1676 4.58631 21.9976 4.5424C20.8387 4.49604 19.7104 4.9305 18.8672 5.74783C17.4053 7.16771 17.5328 8.63709 17.5348 10.4935C17.5435 11.553 17.5379 12.6126 17.5179 13.672L13.1109 13.6681L13.1039 10.3991C13.1035 9.67555 13.0872 8.73739 13.1555 8.02708C13.3495 6.13995 14.1233 4.36497 15.3649 2.95897C17.0541 1.05196 19.1826 0.116456 21.6669 0.00166891ZM26.1086 11.3464C25.5838 11.8494 25.0641 12.3872 24.5603 12.9133C22.6074 14.9523 20.5912 16.9417 18.6471 18.9884C18.9182 19.2611 19.1771 19.5165 19.4961 19.7317C20.5944 20.3894 21.7005 20.6356 22.9552 20.2949C24.0592 19.9976 25.0023 19.261 25.5757 18.2479C25.8246 17.8081 25.9953 17.3261 26.0797 16.8247C26.1939 16.1419 26.1568 15.0857 26.1531 14.362C26.1469 13.3765 26.1522 12.3911 26.169 11.4057C26.1233 11.3469 26.1487 11.3588 26.1086 11.3464ZM48.9445 0.166056C50.5766 -0.167107 52.2684 0.00390446 53.8059 0.65743C55.3433 1.31096 56.6574 2.41773 57.5819 3.83765C58.5065 5.25759 58.9999 6.92694 58.9999 8.63468H54.6625C54.6625 7.80731 54.4232 6.99855 53.9754 6.31062C53.5274 5.62268 52.8908 5.08648 52.1459 4.76986C51.4011 4.45323 50.5815 4.37039 49.7907 4.5318C48.9999 4.69321 48.2736 5.09163 47.7035 5.67667C47.1333 6.26172 46.7452 7.0071 46.5878 7.81859C46.4306 8.63004 46.5112 9.47114 46.8198 10.2355C47.1282 10.9999 47.6508 11.6534 48.3212 12.113C48.9915 12.5727 49.7797 12.8181 50.586 12.8181V17.2693C48.9219 17.2693 47.2951 16.7628 45.9115 15.8141C44.5278 14.8653 43.4493 13.5168 42.8124 11.939C42.1756 10.3612 42.0089 8.6251 42.3336 6.95016C42.6583 5.27523 43.4596 3.73667 44.6363 2.52911C45.8131 1.32155 47.3123 0.49922 48.9445 0.166056ZM40.3296 14.8111H32.4478V10.2943H40.3296V14.8111Z" fill="url(#paint0_linear_1092_1491)"/>
<defs>
<linearGradient id="paint0_linear_1092_1491" x1="0" y1="12.5" x2="59" y2="12.5" gradientUnits="userSpaceOnUse">
<stop stop-color="#CBFF00"/>
<stop offset="1" stop-color="#07F499"/>
</linearGradient>
</defs>
</svg>
