<svg width="758" height="342" viewBox="0 0 758 342" fill="none" xmlns="http://www.w3.org/2000/svg">
<path opacity="0.1" d="M151.956 0C151.956 20.3801 148.026 40.5618 140.39 59.3906C132.753 78.2192 121.56 95.328 107.45 109.739C102.576 114.717 97.3842 119.339 91.9187 123.579H150.55V341.999H90.0489V125.004C80.2024 132.403 69.4959 138.58 58.1506 143.38C39.7145 151.179 19.9551 155.193 0 155.193V93.1164C11.9732 93.1164 23.8289 90.7071 34.8907 86.0275C45.9523 81.3479 56.0043 74.4902 64.4705 65.8436C72.9366 57.197 79.6517 46.931 84.2335 35.6338C88.8153 24.3366 91.1746 12.2279 91.1746 0H151.956ZM695.343 105.76C718.218 105.76 740.577 112.687 759.598 125.666C778.617 138.646 793.443 157.094 802.195 178.677C810.949 200.261 813.24 224.01 808.778 246.923C804.314 269.836 793.299 290.885 777.123 307.403C760.949 323.922 740.342 335.172 717.907 339.729C695.471 344.288 672.215 341.95 651.082 333.01C629.948 324.069 611.886 308.93 599.176 289.504C586.468 270.079 579.685 247.242 579.685 223.88H639.308C639.308 235.199 642.594 246.263 648.752 255.673C654.908 265.085 663.66 272.421 673.897 276.751C684.136 281.082 695.405 282.216 706.274 280.009C717.144 277.799 727.127 272.349 734.964 264.347C742.801 256.343 748.138 246.146 750.3 235.045C752.461 223.943 751.353 212.436 747.111 201.979C742.87 191.522 735.687 182.585 726.473 176.296C717.258 170.009 706.426 166.652 695.343 166.652V105.76ZM297.829 0.0228307C319.312 -0.394757 340.514 5.06267 359.239 15.8298C390.147 33.7071 408.052 60.7108 417.351 95.0668C398.634 113.664 378.029 134.48 360.038 153.712L420.261 153.83C419.987 178.439 420.822 203.582 419.946 228.162C419.333 245.372 412.048 266.481 403.459 281.193C387.122 309.464 360.361 329.858 329.175 337.8C298.144 345.716 265.304 340.624 237.97 323.658C209.479 305.945 191.076 279.109 183.213 246.191L190.4 239.068L344.379 82.1006C333.38 70.2162 318.457 62.7408 302.374 62.1401C286.444 61.5059 270.935 67.4492 259.345 78.6303C239.249 98.0543 241.002 118.155 241.03 143.551C241.149 158.045 241.072 172.541 240.797 187.034L180.219 186.98L180.123 142.259C180.118 132.362 179.894 119.527 180.832 109.811C183.5 83.9946 194.136 59.7127 211.202 40.4787C234.421 14.3908 263.68 1.59312 297.829 0.0228307ZM358.882 155.219C351.668 162.1 344.525 169.456 337.6 176.654C310.756 204.548 283.041 231.762 256.319 259.761C260.045 263.492 263.603 266.985 267.989 269.929C283.085 278.927 298.29 282.295 315.537 277.634C330.712 273.568 343.676 263.49 351.557 249.631C354.979 243.615 357.326 237.02 358.485 230.162C360.055 220.821 359.545 206.373 359.494 196.472C359.409 182.991 359.482 169.51 359.713 156.029C359.085 155.226 359.433 155.388 358.882 155.219ZM672.779 2.27165C695.214 -2.28602 718.47 0.053413 739.603 8.99364C760.736 17.9339 778.799 33.0745 791.507 52.4991C804.216 71.9239 810.999 94.7606 810.999 118.122H751.377C751.377 106.804 748.089 95.7401 741.933 86.3292C735.775 76.9182 727.024 69.583 716.786 65.2516C706.547 60.9202 695.281 59.7869 684.411 61.995C673.541 64.2031 663.557 69.6535 655.72 77.6568C647.883 85.6603 642.548 95.8572 640.385 106.958C638.223 118.059 639.332 129.565 643.573 140.022C647.813 150.479 654.996 159.418 664.211 165.706C673.425 171.995 684.261 175.351 695.343 175.351V236.244C672.469 236.244 650.107 229.315 631.088 216.337C612.069 203.357 597.244 184.91 588.489 163.326C579.735 141.742 577.445 117.991 581.908 95.0782C586.37 72.1652 597.386 51.1176 613.56 34.5983C629.736 18.0788 650.344 6.82933 672.779 2.27165ZM554.36 202.615H446.02V140.826H554.36V202.615Z" fill="url(#paint0_linear_1092_1534)"/>
<defs>
<linearGradient id="paint0_linear_1092_1534" x1="0" y1="171" x2="811" y2="171" gradientUnits="userSpaceOnUse">
<stop stop-color="#CBFF00"/>
<stop offset="1" stop-color="#07F499"/>
</linearGradient>
</defs>
</svg>
