<svg width="448" height="398" viewBox="0 0 448 398" fill="none" xmlns="http://www.w3.org/2000/svg">
<path d="M436.489 5.33333C436.489 8.27885 438.876 10.6667 441.822 10.6667C444.768 10.6667 447.155 8.27885 447.155 5.33333C447.155 2.38781 444.768 -5.24521e-06 441.822 -5.24521e-06C438.876 -5.24521e-06 436.489 2.38781 436.489 5.33333ZM17.322 317.333L18.0701 316.67V316.67L17.322 317.333ZM197.157 397.32L198.143 397.484L198.473 395.512L197.487 395.347L197.322 396.333L197.157 397.32ZM204.322 197.684L204.476 198.672L204.322 197.684ZM441.822 5.33333C441.766 4.3349 441.765 4.33495 441.763 4.33505C441.762 4.33514 441.759 4.33529 441.756 4.33549C441.749 4.33587 441.738 4.33645 441.725 4.33722C441.698 4.33876 441.657 4.34107 441.603 4.34416C441.496 4.35032 441.335 4.35957 441.124 4.37195C440.701 4.3967 440.074 4.43396 439.256 4.484C437.621 4.58409 435.222 4.73533 432.17 4.94006C426.065 5.34952 417.344 5.97292 406.873 6.82884C385.934 8.54056 357.994 11.1828 330.003 14.9046C302.021 18.625 273.947 23.4294 252.758 29.4732C242.171 32.4932 233.243 35.8387 226.895 39.5449C220.616 43.2107 216.534 47.4216 216.323 52.2899L217.322 52.3333L218.321 52.3768C218.484 48.6201 221.7 44.8934 227.903 41.2721C234.037 37.6912 242.777 34.4 253.307 31.3965C274.353 25.3936 302.31 20.6042 330.266 16.8871C358.212 13.1714 386.116 10.5323 407.036 8.82219C417.496 7.96718 426.207 7.34448 432.304 6.93558C435.352 6.73113 437.746 6.58013 439.378 6.48026C440.194 6.43033 440.82 6.39318 441.241 6.36853C441.451 6.3562 441.611 6.347 441.718 6.34088C441.771 6.33783 441.811 6.33554 441.838 6.33402C441.851 6.33326 441.861 6.33269 441.868 6.33232C441.871 6.33213 441.874 6.33199 441.876 6.3319C441.877 6.3318 441.878 6.33176 441.822 5.33333ZM217.322 52.3333L216.323 52.2899C216.112 57.1397 219.645 61.6523 225.341 65.8667C231.093 70.122 239.34 74.2897 249.195 78.4045C268.912 86.6379 295.326 94.7629 321.712 102.976C348.133 111.199 374.53 119.511 394.321 128.133C404.221 132.446 412.406 136.81 418.101 141.244C423.834 145.707 426.822 150.066 426.822 154.333H427.822H428.822C428.822 149.101 425.185 144.225 419.33 139.666C413.437 135.079 405.072 130.635 395.12 126.299C375.208 117.625 348.698 109.28 322.307 101.066C295.881 92.8412 269.575 84.7475 249.965 76.559C240.156 72.4629 232.086 68.3689 226.531 64.2589C220.921 60.1081 218.157 56.1519 218.321 52.3768L217.322 52.3333ZM17.322 317.333L16.5738 317.997C42.2317 346.93 87.4603 366.746 126.113 379.323C145.466 385.62 163.221 390.118 176.139 393.042C182.598 394.504 187.849 395.573 191.487 396.276C193.306 396.628 194.721 396.889 195.683 397.061C196.164 397.148 196.532 397.212 196.779 397.255C196.903 397.277 196.997 397.293 197.06 397.303C197.092 397.309 197.116 397.313 197.132 397.315C197.14 397.317 197.146 397.318 197.15 397.319C197.153 397.319 197.154 397.319 197.155 397.319C197.156 397.32 197.157 397.32 197.322 396.333C197.487 395.347 197.486 395.347 197.486 395.347C197.485 395.347 197.483 395.346 197.482 395.346C197.478 395.346 197.472 395.345 197.465 395.343C197.449 395.341 197.426 395.337 197.396 395.332C197.335 395.321 197.243 395.305 197.121 395.284C196.877 395.242 196.514 395.178 196.037 395.093C195.083 394.922 193.676 394.663 191.867 394.313C188.247 393.613 183.017 392.548 176.58 391.091C163.706 388.177 146.012 383.694 126.732 377.421C88.1174 364.856 43.346 345.172 18.0701 316.67L17.322 317.333ZM427.822 154.333H426.822C426.822 155.965 425.496 157.774 422.22 159.707C419.011 161.602 414.242 163.426 408.087 165.197C395.791 168.734 378.217 171.99 357.155 175.235C336.102 178.478 311.613 181.704 285.501 185.19C259.394 188.675 231.67 192.419 204.168 196.696L204.322 197.684L204.476 198.672C231.954 194.399 259.658 190.658 285.766 187.173C311.868 183.688 336.382 180.459 357.459 177.212C378.527 173.966 396.211 170.694 408.64 167.119C414.847 165.333 419.808 163.454 423.237 161.43C426.6 159.445 428.822 157.12 428.822 154.333H427.822ZM204.322 197.684L204.168 196.696C140.945 206.528 78.745 219.199 39.9976 238.098C20.6476 247.537 6.91098 258.639 1.99036 271.934C-2.97223 285.342 1.14826 300.602 16.5738 317.997L17.322 317.333L18.0701 316.67C2.88629 299.548 -0.732564 285.052 3.86601 272.628C8.50656 260.09 21.6316 249.282 40.8744 239.896C79.3123 221.147 141.222 208.509 204.476 198.672L204.322 197.684Z" fill="url(#paint0_linear_1092_1537)"/>
<defs>
<linearGradient id="paint0_linear_1092_1537" x1="1.00183" y1="200.833" x2="441.822" y2="200.833" gradientUnits="userSpaceOnUse">
<stop stop-color="#CBFF00"/>
<stop offset="1" stop-color="#07F499"/>
</linearGradient>
</defs>
</svg>
