<svg width="413" height="351" viewBox="0 0 413 351" fill="none" xmlns="http://www.w3.org/2000/svg">
<path d="M201.999 1.04346C202.023 0.491697 201.595 0.0249599 201.043 0.000974059C200.492 -0.0230118 200.025 0.404837 200.001 0.9566L201 1.00003L201.999 1.04346ZM1.74819 265.337C1.38175 264.923 0.749723 264.885 0.336511 265.252C-0.0767008 265.618 -0.114621 266.25 0.251814 266.664L1 266L1.74819 265.337ZM175.667 345C175.667 347.946 178.054 350.333 181 350.333C183.945 350.333 186.333 347.946 186.333 345C186.333 342.055 183.945 339.667 181 339.667C178.054 339.667 175.667 342.055 175.667 345ZM187.847 145.363C187.301 145.448 186.927 145.959 187.012 146.504C187.097 147.05 187.608 147.424 188.154 147.339L188 146.351L187.847 145.363ZM193.843 146.462C194.389 146.379 194.764 145.868 194.681 145.322C194.598 144.777 194.087 144.402 193.541 144.485L193.692 145.473L193.843 146.462ZM204.94 142.772C204.394 142.853 204.016 143.361 204.097 143.908C204.178 144.454 204.686 144.832 205.233 144.751L205.086 143.762L204.94 142.772ZM216.629 143.09C217.176 143.012 217.555 142.505 217.477 141.958C217.398 141.412 216.892 141.032 216.345 141.111L216.487 142.101L216.629 143.09ZM227.753 139.492C227.206 139.569 226.825 140.075 226.902 140.621C226.979 141.168 227.484 141.55 228.031 141.473L227.892 140.483L227.753 139.492ZM239.435 139.891C239.983 139.816 240.365 139.311 240.29 138.764C240.215 138.217 239.71 137.834 239.163 137.909L239.299 138.9L239.435 139.891ZM250.585 136.353C250.038 136.427 249.654 136.93 249.729 137.478C249.803 138.025 250.306 138.409 250.854 138.335L250.72 137.344L250.585 136.353ZM262.276 136.798C262.824 136.724 263.208 136.221 263.135 135.674C263.061 135.126 262.558 134.742 262.011 134.815L262.143 135.806L262.276 136.798ZM273.435 133.289C272.888 133.362 272.503 133.865 272.576 134.412C272.649 134.96 273.152 135.344 273.7 135.271L273.568 134.28L273.435 133.289ZM285.12 133.748C285.667 133.674 286.052 133.171 285.979 132.624C285.906 132.077 285.402 131.692 284.855 131.765L284.988 132.756L285.12 133.748ZM296.264 130.234C295.716 130.308 295.332 130.812 295.406 131.359C295.48 131.906 295.984 132.29 296.531 132.216L296.397 131.225L296.264 130.234ZM307.943 130.664C308.49 130.589 308.873 130.085 308.798 129.538C308.723 128.991 308.218 128.608 307.671 128.683L307.807 129.674L307.943 130.664ZM319.099 127.094C318.552 127.171 318.171 127.677 318.248 128.224C318.325 128.77 318.831 129.151 319.378 129.074L319.238 128.084L319.099 127.094ZM330.784 127.434C331.33 127.354 331.708 126.846 331.628 126.299C331.547 125.753 331.039 125.375 330.493 125.455L330.638 126.444L330.784 127.434ZM341.866 123.742C341.32 123.826 340.946 124.337 341.031 124.883C341.115 125.429 341.626 125.803 342.172 125.718L342.019 124.73L341.866 123.742ZM353.579 123.888C354.124 123.798 354.492 123.282 354.401 122.738C354.311 122.193 353.795 121.825 353.251 121.916L353.415 122.902L353.579 123.888ZM364.576 119.938C364.033 120.038 363.674 120.559 363.774 121.102C363.873 121.645 364.395 122.005 364.938 121.905L364.757 120.921L364.576 119.938ZM376.233 119.691C376.774 119.577 377.12 119.047 377.006 118.507C376.892 117.966 376.362 117.62 375.822 117.734L376.028 118.712L376.233 119.691ZM387.007 115.153C386.472 115.289 386.149 115.834 386.286 116.369C386.423 116.904 386.968 117.227 387.503 117.09L387.255 116.121L387.007 115.153ZM398.681 113.762C399.201 113.578 399.474 113.006 399.289 112.486C399.104 111.965 398.533 111.693 398.012 111.878L398.346 112.82L398.681 113.762ZM407.962 106.977C407.529 107.32 407.457 107.949 407.8 108.382C408.143 108.815 408.772 108.887 409.205 108.544L408.583 107.761L407.962 106.977ZM411.074 97.3288C410.826 96.8353 410.225 96.6362 409.731 96.8841C409.238 97.1321 409.039 97.7331 409.287 98.2266L410.18 97.7777L411.074 97.3288ZM402.362 90.3723C402.793 90.7183 403.422 90.6499 403.768 90.2195C404.114 89.789 404.046 89.1596 403.615 88.8135L402.989 89.5929L402.362 90.3723ZM394.418 82.6708C393.939 82.396 393.328 82.5616 393.053 83.0406C392.778 83.5197 392.944 84.1308 393.423 84.4056L393.921 83.5382L394.418 82.6708ZM383.747 79.4032C384.247 79.639 384.843 79.4252 385.078 78.9258C385.314 78.4264 385.1 77.8304 384.601 77.5946L384.174 78.4989L383.747 79.4032ZM374.56 73.1652C374.05 72.9535 373.465 73.1954 373.254 73.7055C373.042 74.2156 373.284 74.8008 373.794 75.0125L374.177 74.0888L374.56 73.1652ZM363.617 70.9886C364.134 71.1841 364.711 70.9238 364.907 70.4072C365.102 69.8907 364.842 69.3135 364.325 69.118L363.971 70.0533L363.617 70.9886ZM353.992 65.3444C353.471 65.1603 352.9 65.4331 352.716 65.9538C352.532 66.4745 352.805 67.0459 353.326 67.23L353.659 66.2872L353.992 65.3444ZM343.005 63.6748C343.528 63.8509 344.095 63.5693 344.272 63.0459C344.448 62.5224 344.166 61.9553 343.643 61.7792L343.324 62.727L343.005 63.6748ZM333.241 58.3457C332.715 58.1752 332.151 58.4629 331.981 58.9882C331.81 59.5135 332.098 60.0775 332.623 60.248L332.932 59.2969L333.241 58.3457ZM322.203 56.9099C322.729 57.0767 323.291 56.7851 323.458 56.2586C323.625 55.7321 323.333 55.1701 322.806 55.0033L322.505 55.9566L322.203 56.9099ZM312.354 51.7182C311.827 51.5535 311.266 51.8474 311.102 52.3745C310.937 52.9017 311.231 53.4626 311.758 53.6272L312.056 52.6727L312.354 51.7182ZM301.301 50.37C301.828 50.5341 302.389 50.2396 302.553 49.7122C302.717 49.1848 302.423 48.6243 301.895 48.4603L301.598 49.4151L301.301 50.37ZM291.439 45.2007C290.912 45.0358 290.351 45.3294 290.186 45.8565C290.021 46.3836 290.314 46.9446 290.842 47.1095L291.14 46.1551L291.439 45.2007ZM280.389 43.8162C280.916 43.9835 281.478 43.6925 281.645 43.1661C281.813 42.6398 281.522 42.0775 280.995 41.9102L280.692 42.8632L280.389 43.8162ZM270.578 38.5564C270.053 38.3849 269.489 38.6714 269.317 39.1964C269.146 39.7214 269.432 40.286 269.957 40.4575L270.268 39.507L270.578 38.5564ZM259.562 36.9952C260.085 37.1732 260.653 36.8936 260.831 36.3708C261.009 35.8479 260.729 35.2798 260.207 35.1019L259.884 36.0485L259.562 36.9952ZM249.912 31.5003C249.393 31.3129 248.82 31.5821 248.632 32.1016C248.445 32.6212 248.714 33.1942 249.233 33.3816L249.573 32.441L249.912 31.5003ZM238.928 29.5171C239.442 29.7185 240.023 29.4648 240.224 28.9506C240.425 28.4363 240.172 27.8562 239.657 27.6548L239.293 28.586L238.928 29.5171ZM229.555 23.4736C229.05 23.251 228.46 23.4802 228.237 23.9856C228.014 24.4911 228.244 25.0813 228.749 25.3039L229.152 24.3888L229.555 23.4736ZM218.856 20.5664C219.345 20.8239 219.95 20.6366 220.207 20.148C220.465 19.6594 220.277 19.0546 219.789 18.7971L219.323 19.6817L218.856 20.5664ZM210.566 13.187C210.119 12.8626 209.493 12.962 209.169 13.4089C208.845 13.8559 208.944 14.4812 209.391 14.8056L209.978 13.9963L210.566 13.187ZM201.481 6.68224C201.75 7.16448 202.359 7.33718 202.841 7.06799C203.324 6.79879 203.496 6.18964 203.227 5.7074L202.354 6.19482L201.481 6.68224ZM4.05624 270.744C4.44251 271.139 5.07564 271.146 5.47037 270.759C5.8651 270.373 5.87197 269.74 5.4857 269.345L4.77097 270.045L4.05624 270.744ZM13.5168 276.86C13.0983 276.499 12.4669 276.546 12.1065 276.965C11.7462 277.383 11.7934 278.015 12.2119 278.375L12.8644 277.617L13.5168 276.86ZM20.9262 285.34C21.3693 285.67 21.9957 285.578 22.3255 285.135C22.6553 284.692 22.5635 284.066 22.1204 283.736L21.5233 284.538L20.9262 285.34ZM31.1691 290.05C30.7073 289.747 30.0874 289.876 29.7845 290.338C29.4817 290.8 29.6106 291.42 30.0725 291.723L30.6208 290.886L31.1691 290.05ZM39.5361 297.583C40.0127 297.862 40.6253 297.702 40.9044 297.226C41.1836 296.749 41.0235 296.136 40.547 295.857L40.0415 296.72L39.5361 297.583ZM50.2032 301.229C49.715 300.971 49.1099 301.157 48.8517 301.645C48.5936 302.133 48.78 302.739 49.2683 302.997L49.7357 302.113L50.2032 301.229ZM59.2018 308.007C59.6994 308.247 60.2971 308.037 60.5366 307.54C60.7762 307.042 60.567 306.445 60.0694 306.205L59.6356 307.106L59.2018 308.007ZM70.1111 310.831C69.6058 310.608 69.0154 310.837 68.7926 311.343C68.5697 311.848 68.7986 312.438 69.3039 312.661L69.7075 311.746L70.1111 310.831ZM79.5396 316.993C80.0513 317.2 80.6346 316.954 80.8424 316.442C81.0502 315.931 80.8039 315.347 80.2922 315.14L79.9159 316.066L79.5396 316.993ZM90.6039 319.165C90.0868 318.971 89.5103 319.233 89.3163 319.75C89.1222 320.267 89.384 320.844 89.9011 321.038L90.2525 320.101L90.6039 319.165ZM100.353 324.814C100.875 324.996 101.445 324.72 101.626 324.198C101.808 323.677 101.532 323.107 101.01 322.925L100.682 323.87L100.353 324.814ZM111.499 326.44C110.973 326.271 110.409 326.559 110.24 327.085C110.07 327.61 110.358 328.174 110.884 328.344L111.191 327.392L111.499 326.44ZM121.503 331.649C122.032 331.808 122.59 331.508 122.748 330.979C122.907 330.45 122.607 329.892 122.078 329.733L121.791 330.691L121.503 331.649ZM132.707 332.806C132.175 332.658 131.624 332.969 131.476 333.501C131.327 334.033 131.639 334.585 132.171 334.733L132.439 333.77L132.707 332.806ZM142.884 337.607C143.419 337.745 143.965 337.423 144.103 336.888C144.241 336.353 143.919 335.808 143.384 335.67L143.134 336.638L142.884 337.607ZM154.145 338.339C153.608 338.211 153.069 338.543 152.941 339.08C152.813 339.617 153.145 340.156 153.682 340.284L153.914 339.311L154.145 338.339ZM164.48 342.743C165.02 342.86 165.553 342.518 165.67 341.978C165.787 341.439 165.445 340.906 164.905 340.789L164.693 341.766L164.48 342.743ZM175.76 343.021C175.218 342.917 174.694 343.271 174.589 343.814C174.485 344.356 174.839 344.88 175.382 344.985L175.571 344.003L175.76 343.021ZM188 146.351L188.154 147.339C190.049 147.044 191.946 146.752 193.843 146.462L193.692 145.473L193.541 144.485C191.642 144.775 189.744 145.068 187.847 145.363L188 146.351ZM205.086 143.762L205.233 144.751C209.036 144.189 212.837 143.635 216.629 143.09L216.487 142.101L216.345 141.111C212.55 141.656 208.746 142.21 204.94 142.772L205.086 143.762ZM227.892 140.483L228.031 141.473C231.847 140.938 235.65 140.411 239.435 139.891L239.299 138.9L239.163 137.909C235.376 138.43 231.571 138.957 227.753 139.492L227.892 140.483ZM250.72 137.344L250.854 138.335C254.687 137.816 258.496 137.304 262.276 136.798L262.143 135.806L262.011 134.815C258.23 135.322 254.42 135.834 250.585 136.353L250.72 137.344ZM273.568 134.28L273.7 135.271C277.546 134.758 281.355 134.251 285.12 133.748L284.988 132.756L284.855 131.765C281.09 132.268 277.282 132.776 273.435 133.289L273.568 134.28ZM296.397 131.225L296.531 132.216C300.392 131.696 304.198 131.179 307.943 130.664L307.807 129.674L307.671 128.683C303.928 129.197 300.124 129.714 296.264 130.234L296.397 131.225ZM319.238 128.084L319.378 129.074C323.263 128.526 327.067 127.979 330.784 127.434L330.638 126.444L330.493 125.455C326.781 126 322.98 126.546 319.099 127.094L319.238 128.084ZM342.019 124.73L342.172 125.718C346.1 125.11 349.906 124.5 353.579 123.888L353.415 122.902L353.251 121.916C349.586 122.526 345.787 123.134 341.866 123.742L342.019 124.73ZM364.757 120.921L364.938 121.905C368.911 121.174 372.683 120.438 376.233 119.691L376.028 118.712L375.822 117.734C372.291 118.476 368.536 119.21 364.576 119.938L364.757 120.921ZM387.255 116.121L387.503 117.09C391.714 116.012 395.46 114.906 398.681 113.762L398.346 112.82L398.012 111.878C394.864 112.995 391.179 114.084 387.007 115.153L387.255 116.121ZM408.583 107.761L409.205 108.544C411.223 106.944 412.5 105.104 412.5 103H411.5H410.5C410.5 104.22 409.768 105.545 407.962 106.977L408.583 107.761ZM411.5 103H412.5C412.5 101.064 411.999 99.1704 411.074 97.3288L410.18 97.7777L409.287 98.2266C410.093 99.8319 410.5 101.419 410.5 103H411.5ZM402.989 89.5929L403.615 88.8135C401.027 86.7328 397.933 84.6867 394.418 82.6708L393.921 83.5382L393.423 84.4056C396.875 86.3857 399.877 88.3744 402.362 90.3723L402.989 89.5929ZM384.174 78.4989L384.601 77.5946C381.451 76.1072 378.093 74.6311 374.56 73.1652L374.177 74.0888L373.794 75.0125C377.302 76.4683 380.63 77.9316 383.747 79.4032L384.174 78.4989ZM363.971 70.0533L364.325 69.118C360.984 67.854 357.533 66.5963 353.992 65.3444L353.659 66.2872L353.326 67.23C356.855 68.4778 360.292 69.7304 363.617 70.9886L363.971 70.0533ZM343.324 62.727L343.643 61.7792C340.229 60.6307 336.755 59.4864 333.241 58.3457L332.932 59.2969L332.623 60.248C336.133 61.3869 339.599 62.529 343.005 63.6748L343.324 62.727ZM322.505 55.9566L322.806 55.0033C319.341 53.9056 315.852 52.8107 312.354 51.7182L312.056 52.6727L311.758 53.6272C315.254 54.7192 318.74 55.8133 322.203 56.9099L322.505 55.9566ZM301.598 49.4151L301.895 48.4603C298.397 47.372 294.907 46.2857 291.439 45.2007L291.14 46.1551L290.842 47.1095C294.311 48.195 297.803 49.2818 301.301 50.37L301.598 49.4151ZM280.692 42.8632L280.995 41.9102C277.476 40.7914 273.998 39.6737 270.578 38.5564L270.268 39.507L269.957 40.4575C273.383 41.5768 276.866 42.6962 280.389 43.8162L280.692 42.8632ZM259.884 36.0485L260.207 35.1019C256.68 33.9015 253.242 32.7012 249.912 31.5003L249.573 32.441L249.233 33.3816C252.576 34.5873 256.026 35.7916 259.562 36.9952L259.884 36.0485ZM239.293 28.586L239.657 27.6548C236.101 26.2625 232.723 24.8691 229.555 23.4736L229.152 24.3888L228.749 25.3039C231.947 26.7126 235.351 28.1167 238.928 29.5171L239.293 28.586ZM219.323 19.6817L219.789 18.7971C216.238 16.9258 213.141 15.0561 210.566 13.187L209.978 13.9963L209.391 14.8056C212.065 16.7464 215.249 18.6653 218.856 20.5664L219.323 19.6817ZM202.354 6.19482L203.227 5.7074C202.34 4.1182 201.933 2.56945 201.999 1.04346L201 1.00003L200.001 0.9566C199.916 2.91819 200.448 4.83147 201.481 6.68224L202.354 6.19482ZM1 266L0.251814 266.664C1.47667 268.045 2.74578 269.405 4.05624 270.744L4.77097 270.045L5.4857 269.345C4.1972 268.028 2.95047 266.692 1.74819 265.337L1 266ZM12.8644 277.617L12.2119 278.375C14.9934 280.77 17.9047 283.091 20.9262 285.34L21.5233 284.538L22.1204 283.736C19.1339 281.513 16.2597 279.221 13.5168 276.86L12.8644 277.617ZM30.6208 290.886L30.0725 291.723C33.149 293.74 36.3092 295.693 39.5361 297.583L40.0415 296.72L40.547 295.857C37.347 293.983 34.2155 292.048 31.1691 290.05L30.6208 290.886ZM49.7357 302.113L49.2683 302.997C52.5366 304.725 55.8531 306.395 59.2018 308.007L59.6356 307.106L60.0694 306.205C56.7418 304.603 53.4479 302.945 50.2032 301.229L49.7357 302.113ZM69.7075 311.746L69.3039 312.661C72.7043 314.161 76.1215 315.604 79.5396 316.993L79.9159 316.066L80.2922 315.14C76.8913 313.758 73.4923 312.323 70.1111 310.831L69.7075 311.746ZM90.2525 320.101L89.9011 321.038C93.4067 322.353 96.8964 323.612 100.353 324.814L100.682 323.87L101.01 322.925C97.5679 321.728 94.0934 320.475 90.6039 319.165L90.2525 320.101ZM111.191 327.392L110.884 328.344C114.489 329.508 118.036 330.609 121.503 331.649L121.791 330.691L122.078 329.733C118.623 328.697 115.089 327.6 111.499 326.44L111.191 327.392ZM132.439 333.77L132.171 334.733C135.882 335.767 139.464 336.724 142.884 337.607L143.134 336.638L143.384 335.67C139.975 334.79 136.406 333.836 132.707 332.806L132.439 333.77ZM153.914 339.311L153.682 340.284C157.637 341.225 161.259 342.043 164.48 342.743L164.693 341.766L164.905 340.789C161.696 340.091 158.087 339.276 154.145 338.339L153.914 339.311ZM175.571 344.003L175.382 344.985C177.132 345.323 178.494 345.573 179.419 345.738C179.881 345.821 180.234 345.883 180.472 345.924C180.591 345.945 180.682 345.96 180.742 345.971C180.773 345.976 180.796 345.98 180.811 345.982C180.819 345.984 180.825 345.985 180.829 345.985C180.831 345.986 180.832 345.986 180.833 345.986C180.834 345.986 180.834 345.986 180.835 345.986C180.835 345.986 180.835 345.986 180.835 345.986C180.835 345.986 180.835 345.986 180.835 345.986C180.835 345.986 180.835 345.986 181 345C181.165 344.014 181.165 344.014 181.165 344.014C181.165 344.014 181.165 344.014 181.165 344.014C181.165 344.014 181.165 344.014 181.165 344.014C181.164 344.014 181.164 344.014 181.164 344.014C181.163 344.013 181.162 344.013 181.16 344.013C181.156 344.012 181.151 344.011 181.144 344.01C181.129 344.008 181.107 344.004 181.078 343.999C181.019 343.989 180.93 343.974 180.813 343.954C180.579 343.913 180.23 343.852 179.772 343.77C178.855 343.605 177.502 343.357 175.76 343.021L175.571 344.003Z" fill="url(#paint0_linear_1092_1540)"/>
<defs>
<linearGradient id="paint0_linear_1092_1540" x1="1" y1="173" x2="411.5" y2="173" gradientUnits="userSpaceOnUse">
<stop stop-color="#CBFF00"/>
<stop offset="1" stop-color="#07F499"/>
</linearGradient>
</defs>
</svg>
